<?xml version="1.0" encoding="utf-8"?>
<!-- Generator: Adobe Illustrator 21.1.0, SVG Export Plug-In . SVG Version: 6.00 Build 0)  -->
<svg version="1.1" id="Ebene_1" xmlns="http://www.w3.org/2000/svg" xmlns:xlink="http://www.w3.org/1999/xlink" x="0px" y="0px"
	 viewBox="0 0 19.4150009 23.8959999" style="enable-background:new 0 0 19.4150009 23.8959999;" xml:space="preserve">
<style type="text/css">
	.st0{fill:#FFFFFF;}
	.st1{clip-path:url(#SVGID_2_);fill:url(#SVGID_3_);}
	.st2{clip-path:url(#SVGID_5_);}
	.st3{clip-path:url(#SVGID_7_);fill:#F5F5F5;}
	.st4{opacity:0.550003;clip-path:url(#SVGID_9_);}
	.st5{clip-path:url(#SVGID_11_);fill:#D5D5D5;}
	.st6{clip-path:url(#SVGID_11_);fill:#EAEAEA;}
	.st7{clip-path:url(#SVGID_5_);fill:url(#SVGID_12_);}
	.st8{fill:#D5D5D5;}
	.st9{fill:#929191;}
	.st10{fill:#CCD1D9;}
	.st11{clip-path:url(#SVGID_14_);fill:#424A54;}
	.st12{clip-path:url(#SVGID_14_);fill:#CCD1D9;}
	.st13{clip-path:url(#SVGID_14_);fill:#E5E8ED;}
	.st14{clip-path:url(#SVGID_14_);fill:#ABB2BD;}
	.st15{clip-path:url(#SVGID_14_);fill:#A1D469;}
	.st16{clip-path:url(#SVGID_14_);fill:#ED5466;}
	.st17{fill:#030005;}
	.st18{fill:#211A14;}
</style>
<path d="M9.7073002,20.9090996c0.4119997,0,0.7469997-0.3349991,0.7469997-0.7469997v-8.9609995
	c0-0.4119997-0.335-0.7460003-0.7469997-0.7460003s-0.7460003,0.3340006-0.7460003,0.7460003v8.9609995
	C8.9612999,20.5741005,9.2953005,20.9090996,9.7073002,20.9090996 M5.9743004,20.9090996
	c0.4120002,0,0.7459998-0.3349991,0.7459998-0.7469997v-8.9609995c0-0.4119997-0.3339996-0.7460003-0.7459998-0.7460003
	c-0.4130001,0-0.7469997,0.3340006-0.7469997,0.7460003v8.9609995C5.2273006,20.5741005,5.5613003,20.9090996,5.9743004,20.9090996
	 M17.1752987,5.9741001H2.2403002c-0.4119997,0-0.7469997-0.3339996-0.7469997-0.7469997
	c0-0.4119987,0.335-0.7459984,0.7469997-0.7459984h14.9349985c0.4120007,0,0.7460003,0.3339996,0.7460003,0.7459984
	C17.921299,5.6401005,17.5872993,5.9741001,17.1752987,5.9741001 M16.428299,20.9090996
	c0,0.8240013-0.6679993,1.493-1.4939985,1.493H4.4802999c-0.8249998,0-1.493-0.6689987-1.493-1.493V7.4681015h13.440999V20.9090996z
	 M7.4673004,2.2401009c0-0.4119987,0.335-0.7460003,0.7469997-0.7460003h2.9869995
	c0.4120007,0,0.7460003,0.3340015,0.7460003,0.7460003v0.7469997H7.4673004V2.2401009z M17.921299,2.9871006h-4.4799986v-1.493
	c0-0.8249989-0.6680002-1.4939995-1.4940004-1.4939995H7.4673004c-0.8249998,0-1.493,0.6690006-1.493,1.4939995v1.493H1.4933004
	c-0.8249998,0-1.493,0.6690006-1.493,1.4940014v1.4929981c0,0.8250008,0.6680002,1.4940014,1.493,1.4940014v13.4409981
	c0,1.6499996,1.3380003,2.9869995,2.9869995,2.9869995h10.4549999c1.6489992,0,2.9859991-1.3369999,2.9859991-2.9869995V7.4681015
	c0.8260002,0,1.4940014-0.6690006,1.4940014-1.4940014V4.481102C19.4153004,3.6561012,18.7472992,2.9871006,17.921299,2.9871006
	 M13.4413004,20.9090996c0.4119997,0,0.7469997-0.3349991,0.7469997-0.7469997v-8.9609995
	c0-0.4119997-0.335-0.7460003-0.7469997-0.7460003c-0.4120007,0-0.7470007,0.3340006-0.7470007,0.7460003v8.9609995
	C12.6942997,20.5741005,13.0292997,20.9090996,13.4413004,20.9090996"/>
</svg>
