<?xml version="1.0" encoding="utf-8"?>
<!-- Generator: Adobe Illustrator 21.1.0, SVG Export Plug-In . SVG Version: 6.00 Build 0)  -->
<svg version="1.1" id="Ebene_1" xmlns="http://www.w3.org/2000/svg" xmlns:xlink="http://www.w3.org/1999/xlink" x="0px" y="0px"
	 viewBox="0 0 17.2799988 23.0394077" style="enable-background:new 0 0 17.2799988 23.0394077;" xml:space="preserve">
<style type="text/css">
	.st0{fill:#FFFFFF;}
	.st1{clip-path:url(#SVGID_2_);fill:url(#SVGID_3_);}
	.st2{clip-path:url(#SVGID_5_);}
	.st3{clip-path:url(#SVGID_7_);fill:#F5F5F5;}
	.st4{opacity:0.550003;clip-path:url(#SVGID_9_);}
	.st5{clip-path:url(#SVGID_11_);fill:#D5D5D5;}
	.st6{clip-path:url(#SVGID_11_);fill:#EAEAEA;}
	.st7{clip-path:url(#SVGID_5_);fill:url(#SVGID_12_);}
	.st8{fill:#D5D5D5;}
	.st9{fill:#929191;}
	.st10{fill:#CCD1D9;}
	.st11{clip-path:url(#SVGID_14_);fill:#424A54;}
	.st12{clip-path:url(#SVGID_14_);fill:#CCD1D9;}
	.st13{clip-path:url(#SVGID_14_);fill:#E5E8ED;}
	.st14{clip-path:url(#SVGID_14_);fill:#ABB2BD;}
	.st15{clip-path:url(#SVGID_14_);fill:#A1D469;}
	.st16{clip-path:url(#SVGID_14_);fill:#ED5466;}
	.st17{fill:#030005;}
	.st18{fill:#211A14;}
</style>
<g>
	<path d="M16.70401,6.9114013h-5.184021v1.151978h4.6080322v13.8239746H1.1520081V8.0633793h4.6079712v-1.151978h-5.18396
		c-0.3179932,0-0.5759888,0.2579346-0.5759888,0.5760498v14.9759521c0,0.3179932,0.2579956,0.5760498,0.5759888,0.5760498H16.70401
		c0.3179932,0,0.5759888-0.2580566,0.5759888-0.5760498V7.4874511C17.2799988,7.1693358,17.0220032,6.9114013,16.70401,6.9114013z"
		/>
	<path d="M5.5863953,4.3678222l2.4780273-2.4228516v12.3789062c0,0.3179932,0.2579956,0.5759277,0.5759888,0.5759277
		s0.5759888-0.2568359,0.5759888-0.5759277V1.943872l2.4769897,2.4239502
		c0.2269897,0.2231445,0.59198,0.2180176,0.8140259-0.0089111c0.2229614-0.2269287,0.2189941-0.592041-0.0090332-0.8140869
		L9.0423889,0.1639647c-0.2269897-0.2220459-0.59198-0.2180176-0.8139648,0.0089111L4.7814026,3.5448241
		C4.5533752,3.76687,4.549408,4.1319823,4.7724304,4.358911C4.9944153,4.5858397,5.3594055,4.5898681,5.5863953,4.3678222z"/>
</g>
</svg>
