<?xml version="1.0" encoding="utf-8"?>
<!-- Generator: Adobe Illustrator 21.1.0, SVG Export Plug-In . SVG Version: 6.00 Build 0)  -->
<svg version="1.1" id="Ebene_1" xmlns="http://www.w3.org/2000/svg" xmlns:xlink="http://www.w3.org/1999/xlink" x="0px" y="0px"
	 viewBox="0 0 21.8263226 20.7929993" style="enable-background:new 0 0 21.8263226 20.7929993;" xml:space="preserve">
<style type="text/css">
	.st0{fill:#FFFFFF;}
	.st1{clip-path:url(#SVGID_2_);fill:url(#SVGID_3_);}
	.st2{clip-path:url(#SVGID_5_);}
	.st3{clip-path:url(#SVGID_7_);fill:#F5F5F5;}
	.st4{opacity:0.550003;clip-path:url(#SVGID_9_);}
	.st5{clip-path:url(#SVGID_11_);fill:#D5D5D5;}
	.st6{clip-path:url(#SVGID_11_);fill:#EAEAEA;}
	.st7{clip-path:url(#SVGID_5_);fill:url(#SVGID_12_);}
	.st8{fill:#D5D5D5;}
	.st9{fill:#929191;}
	.st10{fill:#CCD1D9;}
	.st11{clip-path:url(#SVGID_14_);fill:#424A54;}
	.st12{clip-path:url(#SVGID_14_);fill:#CCD1D9;}
	.st13{clip-path:url(#SVGID_14_);fill:#E5E8ED;}
	.st14{clip-path:url(#SVGID_14_);fill:#ABB2BD;}
	.st15{clip-path:url(#SVGID_14_);fill:#A1D469;}
	.st16{clip-path:url(#SVGID_14_);fill:#ED5466;}
	.st17{fill:#030005;}
	.st18{fill:#211A14;}
</style>
<path d="M21.7765179,7.9717574c-0.2548828-0.7597656-0.7861328-0.7783203-0.9365234-0.7802734l-6.0927725-0.9375
	l-2.5566406-5.4863281l-0.0996094-0.1425781c-0.3076172-0.3076172-0.625-0.625-1.09375-0.625
	c-0.4951172,0-0.9433594,0.3359375-1.09375,0.78125L7.2481985,6.2530074l-6.25,0.7822266
	c-0.4355469,0-0.7675781,0.2773438-0.9375,0.7822266c-0.1435547,0.4326177-0.0292969,0.9062505,0.3125,1.250977l4.5302734,4.2197266
	l0.0009766,0.0009766l-1.0937502,6.0966797c0,0.3017578,0.1474609,0.7734375,0.4687502,1.09375
	c0.2597656,0.2607422,0.6708984,0.3291016,1.1552734,0.1943359l5.5625-2.8515625l5.6240225,2.8134766l0.2607422,0.1572266h0.2070312
	c0.1992188,0,0.4160156-0.0146484,0.6181641-0.1533203c0.3662109-0.1757812,0.4765625-0.7275391,0.484375-0.9960938
	l0.0009766-0.0507812l-1.1025391-6.1474609l4.375-4.3789062C21.7980022,8.7315235,21.9161663,8.2725391,21.7765179,7.9717574z"/>
</svg>
