<?xml version="1.0" encoding="utf-8"?>
<!-- Generator: Adobe Illustrator 21.1.0, SVG Export Plug-In . SVG Version: 6.00 Build 0)  -->
<svg version="1.1" id="Ebene_1" xmlns="http://www.w3.org/2000/svg" xmlns:xlink="http://www.w3.org/1999/xlink" x="0px" y="0px"
	 viewBox="0 0 21.8263226 20.7929993" style="enable-background:new 0 0 21.8263226 20.7929993;" xml:space="preserve">
<style type="text/css">
	.st0{fill:#FFFFFF;}
	.st1{clip-path:url(#SVGID_2_);fill:url(#SVGID_3_);}
	.st2{clip-path:url(#SVGID_5_);}
	.st3{clip-path:url(#SVGID_7_);fill:#F5F5F5;}
	.st4{opacity:0.550003;clip-path:url(#SVGID_9_);}
	.st5{clip-path:url(#SVGID_11_);fill:#D5D5D5;}
	.st6{clip-path:url(#SVGID_11_);fill:#EAEAEA;}
	.st7{clip-path:url(#SVGID_5_);fill:url(#SVGID_12_);}
	.st8{fill:#D5D5D5;}
	.st9{fill:#929191;}
	.st10{fill:#CCD1D9;}
	.st11{clip-path:url(#SVGID_14_);fill:#424A54;}
	.st12{clip-path:url(#SVGID_14_);fill:#CCD1D9;}
	.st13{clip-path:url(#SVGID_14_);fill:#E5E8ED;}
	.st14{clip-path:url(#SVGID_14_);fill:#ABB2BD;}
	.st15{clip-path:url(#SVGID_14_);fill:#A1D469;}
	.st16{clip-path:url(#SVGID_14_);fill:#ED5466;}
	.st17{fill:#030005;}
	.st18{fill:#211A14;}
</style>
<path d="M21.7774944,7.9717879c-0.2568359-0.7636719-0.8095703-0.7802734-0.9375-0.7802734l-6.0927725-0.9375l-2.5566406-5.4863281
	l-0.0996094-0.1425781c-0.3076172-0.3076172-0.625-0.625-1.09375-0.625c-0.4951172,0-0.9433594,0.3359375-1.09375,0.78125
	L7.2481985,6.2530379l-6.25,0.7822266c-0.4355469,0-0.7675781,0.2773438-0.9375,0.7822266
	c-0.1435547,0.4326177-0.0292969,0.9062505,0.3125,1.250977l4.5302734,4.2197266l0.0009766,0.0009766l-1.0937502,6.0966797
	c0,0.3017578,0.1474609,0.7734375,0.4687502,1.09375c0.2617188,0.2626953,0.671875,0.3310547,1.25,0.15625l5.4677734-2.8134766
	l5.6240225,2.8134766l0.2607422,0.1572266h0.2070312c0.1992188,0,0.4160156-0.0146484,0.6181641-0.1533203
	c0.3662109-0.1757812,0.4765625-0.7275391,0.484375-0.9960938l0.0009766-0.0507812l-1.1025391-6.1474609l4.375-4.3789062
	C21.7980022,8.731554,21.9161663,8.2725697,21.7774944,7.9717879z M20.7560101,8.3614368l-4.7421875,4.7460938l1.1748047,6.5517578
	c-0.0039062,0.0351562-0.0107422,0.0683594-0.0185547,0.0966797l-6.1806631-3.0546875l-5.8251953,3.0097656
	c-0.1191406,0.0332031-0.203125,0.0332031-0.1796875,0.0595703c-0.109375-0.1113281-0.1650391-0.2988281-0.1796875-0.2988281
	c-0.0009766,0-0.0019531,0.0009766-0.0019531,0.0029297l1.1816406-6.5449219L1.0694873,8.3506947
	c-0.0615234-0.0625-0.0839843-0.1445312-0.0605469-0.2167969C1.048003,8.0176868,1.0675342,8.0098743,1.0597217,8.0313587
	l6.8505859-0.8525395l2.9160156-6.015625c0.0410156-0.1201172,0.125-0.1630859,0.1699219-0.1630859
	c0.0585938,0.0126953,0.2148438,0.1611328,0.3251953,0.2705078l2.7470703,5.8896484l6.7021475,1.0039067
	c0,0,0.0263672,0.0292969,0.0566406,0.0830078C20.825346,8.2598743,20.8077679,8.3087025,20.7560101,8.3614368z"/>
</svg>
