<?xml version="1.0" encoding="utf-8"?>
<!-- Generator: Adobe Illustrator 21.1.0, SVG Export Plug-In . SVG Version: 6.00 Build 0)  -->
<svg version="1.1" id="Ebene_1" xmlns="http://www.w3.org/2000/svg" xmlns:xlink="http://www.w3.org/1999/xlink" x="0px" y="0px"
	 viewBox="0 0 3.24 15.6239996" style="enable-background:new 0 0 3.24 15.6239996;" xml:space="preserve">
<style type="text/css">
	.st0{fill:#FFFFFF;}
	.st1{clip-path:url(#SVGID_2_);fill:url(#SVGID_3_);}
	.st2{clip-path:url(#SVGID_5_);}
	.st3{clip-path:url(#SVGID_7_);fill:#F5F5F5;}
	.st4{opacity:0.550003;clip-path:url(#SVGID_9_);}
	.st5{clip-path:url(#SVGID_11_);fill:#D5D5D5;}
	.st6{clip-path:url(#SVGID_11_);fill:#EAEAEA;}
	.st7{clip-path:url(#SVGID_5_);fill:url(#SVGID_12_);}
	.st8{fill:#D5D5D5;}
	.st9{fill:#929191;}
	.st10{fill:#CCD1D9;}
	.st11{clip-path:url(#SVGID_14_);fill:#424A54;}
	.st12{clip-path:url(#SVGID_14_);fill:#CCD1D9;}
	.st13{clip-path:url(#SVGID_14_);fill:#E5E8ED;}
	.st14{clip-path:url(#SVGID_14_);fill:#ABB2BD;}
	.st15{clip-path:url(#SVGID_14_);fill:#A1D469;}
	.st16{clip-path:url(#SVGID_14_);fill:#ED5466;}
	.st17{fill:#030005;}
	.st18{fill:#211A14;}
</style>
<path d="M-0.0001733,1.6201825c0-0.8950195,0.7249756-1.6199951,1.6199951-1.6199951
	c0.8949585,0,1.6199951,0.7249756,1.6199951,1.6199951c0,0.8939819-0.7250366,1.6199951-1.6199951,1.6199951
	C0.7248023,3.2401776-0.0001733,2.5141644-0.0001733,1.6201825z M1.6198218,6.1925702
	c-0.8950195,0-1.6199951,0.7250366-1.6199951,1.6199951c0,0.8940425,0.7249756,1.6199946,1.6199951,1.6199946
	c0.8949585,0,1.6199951-0.7259521,1.6199951-1.6199946C3.2398169,6.9176068,2.5147803,6.1925702,1.6198218,6.1925702z
	 M1.6198218,12.383976c-0.8950195,0-1.6199951,0.7250366-1.6199951,1.6199951c0,0.894043,0.7249756,1.6199951,1.6199951,1.6199951
	c0.8949585,0,1.6199951-0.7259521,1.6199951-1.6199951C3.2398169,13.1090126,2.5147803,12.383976,1.6198218,12.383976z"/>
</svg>
