<?xml version="1.0" encoding="utf-8"?>
<!-- Generator: Adobe Illustrator 21.1.0, SVG Export Plug-In . SVG Version: 6.00 Build 0)  -->
<svg version="1.1" id="Ebene_1" xmlns="http://www.w3.org/2000/svg" xmlns:xlink="http://www.w3.org/1999/xlink" x="0px" y="0px"
	 viewBox="0 0 20.2210007 20.2029991" style="enable-background:new 0 0 20.2210007 20.2029991;" xml:space="preserve">
<style type="text/css">
	.st0{fill:#FFFFFF;}
	.st1{clip-path:url(#SVGID_2_);fill:url(#SVGID_3_);}
	.st2{clip-path:url(#SVGID_5_);}
	.st3{clip-path:url(#SVGID_7_);fill:#F5F5F5;}
	.st4{opacity:0.550003;clip-path:url(#SVGID_9_);}
	.st5{clip-path:url(#SVGID_11_);fill:#D5D5D5;}
	.st6{clip-path:url(#SVGID_11_);fill:#EAEAEA;}
	.st7{clip-path:url(#SVGID_5_);fill:url(#SVGID_12_);}
	.st8{fill:#D5D5D5;}
	.st9{fill:#929191;}
	.st10{fill:#CCD1D9;}
	.st11{clip-path:url(#SVGID_14_);fill:#424A54;}
	.st12{clip-path:url(#SVGID_14_);fill:#CCD1D9;}
	.st13{clip-path:url(#SVGID_14_);fill:#E5E8ED;}
	.st14{clip-path:url(#SVGID_14_);fill:#ABB2BD;}
	.st15{clip-path:url(#SVGID_14_);fill:#A1D469;}
	.st16{clip-path:url(#SVGID_14_);fill:#ED5466;}
	.st17{fill:#030005;}
	.st18{fill:#211A14;}
</style>
<path d="M19.4517136,3.1154943l-9.085022-3.085022c-0.2149658-0.0410156-0.3889771-0.0410156-0.5579834,0L0.7197189,3.1194615
	c-0.7399902,0.2280273-0.7200317,0.8110352-0.7200317,0.8270264v11.8720093c0,0.3429565,0.2150269,0.6449585,0.559021,0.7730103
	l9.25,3.5689697c0.164978,0.0700073,0.5169678,0.0410156,0.6040039,0l9.25-3.5650024
	c0.3430176-0.1279907,0.5579834-0.4299927,0.5579834-0.7730103V3.9464879
	C20.2206955,3.6905065,20.0637131,3.1944737,19.4517136,3.1154943z M9.2507248,18.1424713l-7.5720215-2.9229736V5.1955113
	l7.5720215,2.8819575V18.1424713z M10.1107101,6.5724645L3.3126755,3.9884801l6.7980347-2.2789917l6.7979736,2.2789917
	L10.1107101,6.5724645z M18.5416794,15.2194977l-7.5709839,2.9229736V8.1024933l7.5709839-2.9069819V15.2194977z"/>
</svg>
