<?xml version="1.0" encoding="utf-8"?>
<!-- Generator: Adobe Illustrator 21.1.0, SVG Export Plug-In . SVG Version: 6.00 Build 0)  -->
<svg version="1.1" id="Ebene_1" xmlns="http://www.w3.org/2000/svg" xmlns:xlink="http://www.w3.org/1999/xlink" x="0px" y="0px"
	 viewBox="0 0 93.5400009 112.2509995" style="enable-background:new 0 0 93.5400009 112.2509995;" xml:space="preserve">
<style type="text/css">
	.st0{fill:#FFFFFF;}
	.st1{clip-path:url(#SVGID_2_);fill:url(#SVGID_3_);}
	.st2{clip-path:url(#SVGID_5_);}
	.st3{clip-path:url(#SVGID_7_);fill:#F5F5F5;}
	.st4{opacity:0.550003;clip-path:url(#SVGID_9_);}
	.st5{clip-path:url(#SVGID_11_);fill:#D5D5D5;}
	.st6{clip-path:url(#SVGID_11_);fill:#EAEAEA;}
	.st7{clip-path:url(#SVGID_5_);fill:url(#SVGID_12_);}
	.st8{fill:#D5D5D5;}
	.st9{fill:#929191;}
	.st10{fill:#CCD1D9;}
	.st11{clip-path:url(#SVGID_14_);fill:#424A54;}
	.st12{clip-path:url(#SVGID_14_);fill:#CCD1D9;}
	.st13{clip-path:url(#SVGID_14_);fill:#E5E8ED;}
	.st14{clip-path:url(#SVGID_14_);fill:#ABB2BD;}
	.st15{clip-path:url(#SVGID_14_);fill:#A1D469;}
	.st16{clip-path:url(#SVGID_14_);fill:#ED5466;}
	.st17{fill:#030005;}
	.st18{fill:#211A14;}
</style>
<g>
	<defs>
		<rect id="SVGID_4_" x="-35.159996" y="-168.6999969" width="128.6999969" height="128.6999969"/>
	</defs>
	<clipPath id="SVGID_2_">
		<use xlink:href="#SVGID_4_"  style="overflow:visible;"/>
	</clipPath>
	<g style="clip-path:url(#SVGID_2_);">
		<defs>
			<path id="SVGID_8_" d="M28.6000023-168.6999969c-35.2669983,0.3179932-63.7599983,29.0059967-63.7599983,64.3479996
				C-35.159996-68.8130035-6.3489952-40,29.1900024-40s64.3499985-28.8130035,64.3499985-64.3519974
				c0-35.3420029-28.4929962-64.0300064-63.7599945-64.3479996H28.6000023z"/>
		</defs>
		<clipPath id="SVGID_3_">
			<use xlink:href="#SVGID_8_"  style="overflow:visible;"/>
		</clipPath>
		<g style="opacity:0.550003;clip-path:url(#SVGID_3_);">
			<g>
				<defs>
					<rect id="SVGID_10_" x="-35.3299942" y="-168.8309937" width="114.5199966" height="215.9602051"/>
				</defs>
				<clipPath id="SVGID_5_">
					<use xlink:href="#SVGID_10_"  style="overflow:visible;"/>
				</clipPath>
				<polyline style="clip-path:url(#SVGID_5_);fill:#D5D5D5;" points="62.1900024,46.125 -10.409996,42.1640015 
					18.6300011,-155.8359985 58.2299957,-128.1089935 				"/>
				<polygon style="clip-path:url(#SVGID_5_);fill:#EAEAEA;" points="1.470005,-138.6719055 -18.3299942,34.2500992 
					22.840004,32.0000992 18.6300049,-155.8358917 				"/>
			</g>
		</g>
	</g>
</g>
<rect x="44.4309998" y="3.4939957" class="st10" width="4.6790009" height="18.4580002"/>
<g>
	<defs>
		<rect id="SVGID_13_" width="93.5400009" height="112.2509995"/>
	</defs>
	<clipPath id="SVGID_7_">
		<use xlink:href="#SVGID_13_"  style="overflow:visible;"/>
	</clipPath>
	<path style="clip-path:url(#SVGID_7_);fill:#424A54;" d="M7.0156999,67.8206024V91.203598
		c0,1.2919998,1.0449996,2.3399963,2.336,2.3399963c1.2919998,0,2.3400002-1.0479965,2.3400002-2.3399963V67.8206024H7.0156999z"/>
	<path style="clip-path:url(#SVGID_7_);fill:#424A54;" d="M81.8486023,67.8206024v23.310997
		c0,1.2919998,1.0479965,2.3399963,2.3399963,2.3399963c1.2910004,0,2.3359985-1.0479965,2.3359985-2.3399963v-23.310997H81.8486023
		z"/>
	<path style="clip-path:url(#SVGID_7_);fill:#CCD1D9;" d="M9.3519001,51.449501h15.5900002v18.7070007H9.3519001
		c-5.1659999,0-9.3520002-4.185997-9.3520002-9.3520012C-0.0001001,55.6355019,4.1859002,51.449501,9.3519001,51.449501"/>
	<path style="clip-path:url(#SVGID_7_);fill:#CCD1D9;" d="M84.1883011,51.449501h-15.590004v18.7070007h15.590004
		c5.1659927,0,9.3519974-4.185997,9.3519974-9.3520012C93.5402985,55.6355019,89.3542938,51.449501,84.1883011,51.449501"/>
	<path style="clip-path:url(#SVGID_7_);fill:#424A54;" d="M46.7700996,74.8354034
		c10.3319969,0,18.7079964,8.3759995,18.7079964,18.7079926s-8.3759995,18.7080078-18.7079964,18.7080078
		s-18.7080002-8.3760071-18.7080002-18.7080078S36.4380989,74.8354034,46.7700996,74.8354034"/>
	<path style="clip-path:url(#SVGID_7_);fill:#E5E8ED;" d="M79.5089035,53.7891998
		c0-18.0839996-14.6580048-32.7419968-32.7389984-32.7419968c-18.0800018,0-32.737999,14.6579971-32.737999,32.7419968v44.4300003
		c0,2.5830002,2.0929985,4.6800003,4.6759987,4.6800003H74.832901c2.5830002,0,4.6760025-2.0970001,4.6760025-4.6800003V53.7891998z
		"/>
	<path style="clip-path:url(#SVGID_7_);fill:#ABB2BD;" d="M14.0313997,53.7891998v2.3360023h65.4769897v-2.3360023
		c0-0.7879982-0.0270004-1.5689964-0.0820007-2.3399963H14.1133995
		C14.0583992,52.2202034,14.0313997,53.0012016,14.0313997,53.7891998"/>
	<path style="clip-path:url(#SVGID_7_);fill:#E5E8ED;" d="M46.7700996-0.0000992c3.875,0,7.0159988,3.1410065,7.0159988,7.0160065
		c0,3.8740005-3.1409988,7.0149994-7.0159988,7.0149994s-7.0160027-3.1409988-7.0160027-7.0149994
		C39.754097,3.1409073,42.8950996-0.0000992,46.7700996-0.0000992"/>
	<path style="clip-path:url(#SVGID_7_);fill:#A1D469;" d="M60.8014984,67.8206024
		c0,1.2919998-1.0480003,2.3359985-2.3400002,2.3359985c-1.2910004,0-2.3360023-1.0449982-2.3360023-2.3359985
		s1.045002-2.3399963,2.3360023-2.3399963C59.7534981,65.4806061,60.8014984,66.528595,60.8014984,67.8206024"/>
	<path style="clip-path:url(#SVGID_7_);fill:#424A54;" d="M38.5382996,39.7577972
		c0,1.2920074-1.0480003,2.3360062-2.3400002,2.3360062c-1.2910004,0-2.3390007-1.0450058-2.3390007-2.3360062
		c0-1.2909927,1.0480003-2.3399963,2.3390007-2.3399963C37.4902992,37.4178009,38.5382996,38.4657974,38.5382996,39.7577972"/>
	<path style="clip-path:url(#SVGID_7_);fill:#ED5466;" d="M70.1568985,67.8206024
		c0,1.2919998-1.0480042,2.3359985-2.340004,2.3359985c-1.2910004,0-2.3389969-1.0449982-2.3389969-2.3359985
		s1.0479965-2.3399963,2.3389969-2.3399963C69.1088943,65.4806061,70.1568985,66.528595,70.1568985,67.8206024"/>
	<path style="clip-path:url(#SVGID_7_);fill:#424A54;" d="M57.2457008,39.7577972
		c0,1.2920074-1.0480003,2.3360062-2.3400002,2.3360062c-1.2910004,0-2.3360023-1.0450058-2.3360023-2.3360062
		c0-1.2909927,1.045002-2.3399963,2.3360023-2.3399963C56.1977005,37.4178009,57.2457008,38.4657974,57.2457008,39.7577972"/>
	<path style="clip-path:url(#SVGID_7_);fill:#424A54;" d="M35.0784988,65.480896h-9.3549995
		c-1.2920017,0-2.3400002,1.0480042-2.3400002,2.340004c0,1.2910004,1.0479984,2.3360062,2.3400002,2.3360062h9.3549995
		c1.2919998,0,2.3359985-1.0450058,2.3359985-2.3360062C37.4144974,66.5289001,36.3694954,65.480896,35.0784988,65.480896"/>
</g>
</svg>
