<?xml version="1.0" encoding="utf-8"?>
<!-- Generator: Adobe Illustrator 21.1.0, SVG Export Plug-In . SVG Version: 6.00 Build 0)  -->
<svg version="1.1" id="Ebene_1" xmlns="http://www.w3.org/2000/svg" xmlns:xlink="http://www.w3.org/1999/xlink" x="0px" y="0px"
	 viewBox="0 0 21.3840008 21.3840008" style="enable-background:new 0 0 21.3840008 21.3840008;" xml:space="preserve">
<style type="text/css">
	.st0{fill:#FFFFFF;}
	.st1{clip-path:url(#SVGID_2_);fill:url(#SVGID_3_);}
	.st2{clip-path:url(#SVGID_5_);}
	.st3{clip-path:url(#SVGID_7_);fill:#F5F5F5;}
	.st4{opacity:0.550003;clip-path:url(#SVGID_9_);}
	.st5{clip-path:url(#SVGID_11_);fill:#D5D5D5;}
	.st6{clip-path:url(#SVGID_11_);fill:#EAEAEA;}
	.st7{clip-path:url(#SVGID_5_);fill:url(#SVGID_12_);}
	.st8{fill:#D5D5D5;}
	.st9{fill:#929191;}
	.st10{fill:#CCD1D9;}
	.st11{clip-path:url(#SVGID_14_);fill:#424A54;}
	.st12{clip-path:url(#SVGID_14_);fill:#CCD1D9;}
	.st13{clip-path:url(#SVGID_14_);fill:#E5E8ED;}
	.st14{clip-path:url(#SVGID_14_);fill:#ABB2BD;}
	.st15{clip-path:url(#SVGID_14_);fill:#A1D469;}
	.st16{clip-path:url(#SVGID_14_);fill:#ED5466;}
	.st17{fill:#030005;}
	.st18{fill:#211A14;}
</style>
<path d="M10.6920004,19.4400005c-4.8239999,0-8.7480001-3.9240007-8.7480001-8.7480001s3.9240003-8.7480001,8.7480001-8.7480001
	S19.4400005,5.868,19.4400005,10.6920004S15.5159998,19.4400005,10.6920004,19.4400005 M10.6920004,0
	C4.7960005,0,0,4.7960014,0,10.6920004s4.7960005,10.6920004,10.6920004,10.6920004s10.6920004-4.7960014,10.6920004-10.6920004
	S16.5879993,0,10.6920004,0 M10.6919003,4.5360012c-0.7140007,0-1.2960005,0.5820007-1.2960005,1.2970009
	c0,0.7139997,0.5819998,1.2949991,1.2960005,1.2949991c0.7139997,0,1.2959995-0.5809994,1.2959995-1.2949991
	C11.9878998,5.1180019,11.4059,4.5360012,10.6919003,4.5360012 M10.6920004,9.0720005
	c-0.5370007,0-0.9720001,0.4350004-0.9720001,0.9720001v5.8319998c0,0.5369997,0.4349995,0.9719992,0.9720001,0.9719992
	c0.5369997,0,0.9719992-0.4349995,0.9719992-0.9719992v-5.8319998C11.6639996,9.5070009,11.2290001,9.0720005,10.6920004,9.0720005"
	/>
</svg>
