<?xml version="1.0" encoding="utf-8"?>
<!-- Generator: Adobe Illustrator 21.1.0, SVG Export Plug-In . SVG Version: 6.00 Build 0)  -->
<svg version="1.1" id="Ebene_1" xmlns="http://www.w3.org/2000/svg" xmlns:xlink="http://www.w3.org/1999/xlink" x="0px" y="0px"
	 viewBox="0 0 19.4609985 19.664999" style="enable-background:new 0 0 19.4609985 19.664999;" xml:space="preserve">
<style type="text/css">
	.st0{fill:#FFFFFF;}
	.st1{clip-path:url(#SVGID_2_);fill:url(#SVGID_3_);}
	.st2{clip-path:url(#SVGID_5_);}
	.st3{clip-path:url(#SVGID_7_);fill:#F5F5F5;}
	.st4{opacity:0.550003;clip-path:url(#SVGID_9_);}
	.st5{clip-path:url(#SVGID_11_);fill:#D5D5D5;}
	.st6{clip-path:url(#SVGID_11_);fill:#EAEAEA;}
	.st7{clip-path:url(#SVGID_5_);fill:url(#SVGID_12_);}
	.st8{fill:#D5D5D5;}
	.st9{fill:#929191;}
	.st10{fill:#CCD1D9;}
	.st11{clip-path:url(#SVGID_14_);fill:#424A54;}
	.st12{clip-path:url(#SVGID_14_);fill:#CCD1D9;}
	.st13{clip-path:url(#SVGID_14_);fill:#E5E8ED;}
	.st14{clip-path:url(#SVGID_14_);fill:#ABB2BD;}
	.st15{clip-path:url(#SVGID_14_);fill:#A1D469;}
	.st16{clip-path:url(#SVGID_14_);fill:#ED5466;}
	.st17{fill:#030005;}
	.st18{fill:#211A14;}
</style>
<path class="st18" d="M11.3983765,7.772285c0,0.1660156-0.0579834,0.3179936-0.1549683,0.4379888
	c-0.1300049,0.1610107-0.3300171,0.2650146-0.5549927,0.2650146H8.6633911H4.8554082
	c-0.3920288,0-0.710022-0.3150024-0.710022-0.7030034c0-0.3880005,0.3179932-0.7030029,0.710022-0.7030029h5.8330073
	C11.0803833,7.0692821,11.3983765,7.3842845,11.3983765,7.772285z M18.8640137,18.716011l-0.3510132,0.3509521
	c-0.3859863,0.3860474-0.8989868,0.5980225-1.4440308,0.5980225c-0.5459595,0-1.0579834-0.2119751-1.4439697-0.5980225
	l-4.3549805-4.3549805c-0.1550293,0.0780029-0.3120117,0.1519775-0.4730225,0.2200317
	c-0.9589844,0.4059448-1.9769897,0.6109619-3.0260005,0.6109619c-1.0479736,0-2.065979-0.2059937-3.0250244-0.6109619
	c-0.9259646-0.3920288-1.7569582-0.9520264-2.4699709-1.6650391s-1.2730103-1.5440063-1.664978-2.4699707
	C0.2050174,9.8379593,0.0000003,8.820015,0.0000003,7.7710032c0-1.0480347,0.2050171-2.06604,0.6110229-3.0250244
	c0.3919677-0.9260254,0.9519653-1.757019,1.664978-2.4699707c0.7130127-0.7130127,1.5440063-1.2730103,2.4699709-1.6650391
	c0.9590454-0.4060059,1.9770508-0.6109619,3.0250244-0.6109619c1.0490108,0,2.0670161,0.2049561,3.0260005,0.6109619
	c0.9260254,0.3920288,1.757019,0.9520264,2.4700317,1.6650391c0.7129517,0.7129517,1.2729492,1.5439453,1.664978,2.4699707
	c0.4060059,0.9589844,0.6110229,1.9769897,0.6110229,3.0250244c0,1.0490117-0.2050171,2.066956-0.6110229,3.0260015
	c-0.1069946,0.2539673-0.2280273,0.5-0.3599854,0.7389526l4.2919922,4.2920532
	C19.6599731,16.62397,19.6599731,17.9199905,18.8640137,18.716011z M12.7420044,11.7190018
	c0.3029785-0.3800049,0.5629883-0.7960205,0.7730103-1.2410278c0.3869629-0.8209839,0.6040039-1.7379761,0.6040039-2.7069707
	c0-3.5050049-2.842041-6.3480225-6.348022-6.3480225c-3.5050049,0-6.3480225,2.8430176-6.3480225,6.3480225
	c0,3.5059819,2.8430178,6.3479619,6.3480225,6.3479619c0.8599849,0,1.6790156-0.1709595,2.4260249-0.4799805
	c0.4599609-0.1900024,0.8930054-0.434021,1.2919922-0.7219849C11.9589844,12.576973,12.3809814,12.1729813,12.7420044,11.7190018z
	 M17.8569946,16.8349686l-4.1019897-4.1029663c-0.1539917,0.1849976-0.3170166,0.3629761-0.4879761,0.5349731
	c-0.2400513,0.2399902-0.4950562,0.4630127-0.7610474,0.6680298l4.1260376,4.125
	c0.1199951,0.1209717,0.2789917,0.1809692,0.4369507,0.1809692c0.15802,0,0.3170166-0.0599976,0.4370117-0.1809692
	l0.3510132-0.3510132C18.098999,17.4679642,18.098999,17.0759964,17.8569946,16.8349686z"/>
</svg>
