<?xml version="1.0" encoding="utf-8"?>
<!-- Generator: Adobe Illustrator 21.1.0, SVG Export Plug-In . SVG Version: 6.00 Build 0)  -->
<svg version="1.1" id="Ebene_1" xmlns="http://www.w3.org/2000/svg" xmlns:xlink="http://www.w3.org/1999/xlink" x="0px" y="0px"
	 viewBox="0 0 19.4609985 19.664999" style="enable-background:new 0 0 19.4609985 19.664999;" xml:space="preserve">
<style type="text/css">
	.st0{fill:#FFFFFF;}
	.st1{clip-path:url(#SVGID_2_);fill:url(#SVGID_3_);}
	.st2{clip-path:url(#SVGID_5_);}
	.st3{clip-path:url(#SVGID_7_);fill:#F5F5F5;}
	.st4{opacity:0.550003;clip-path:url(#SVGID_9_);}
	.st5{clip-path:url(#SVGID_11_);fill:#D5D5D5;}
	.st6{clip-path:url(#SVGID_11_);fill:#EAEAEA;}
	.st7{clip-path:url(#SVGID_5_);fill:url(#SVGID_12_);}
	.st8{fill:#D5D5D5;}
	.st9{fill:#929191;}
	.st10{fill:#CCD1D9;}
	.st11{clip-path:url(#SVGID_14_);fill:#424A54;}
	.st12{clip-path:url(#SVGID_14_);fill:#CCD1D9;}
	.st13{clip-path:url(#SVGID_14_);fill:#E5E8ED;}
	.st14{clip-path:url(#SVGID_14_);fill:#ABB2BD;}
	.st15{clip-path:url(#SVGID_14_);fill:#A1D469;}
	.st16{clip-path:url(#SVGID_14_);fill:#ED5466;}
	.st17{fill:#030005;}
	.st18{fill:#211A14;}
</style>
<path class="st18" d="M11.4072266,7.7715125c0,0.1679688-0.0580444,0.3219609-0.1560059,0.4439702
	c-0.1300049,0.1630249-0.3309937,0.2680054-0.5560303,0.2680054H8.6652222H8.4832153v0.1809692v2.0310059
	c0,0.3330078-0.2300415,0.6130371-0.539001,0.6900024c-0.0560303,0.0140381-0.1130371,0.0220337-0.1730347,0.0220337
	c-0.3930054,0-0.7119751-0.3190308-0.7119751-0.7120361V8.4834881H4.848206c-0.3939819,0-0.7120361-0.3190308-0.7120361-0.7119756
	c0-0.3930054,0.3180542-0.7120361,0.7120361-0.7120361h2.2109985V4.8475013c0-0.3930054,0.3189697-0.7120361,0.7119751-0.7120361
	c0.3930049,0,0.7120357,0.3190308,0.7120357,0.7120361v2.2119751h2.2119751
	C11.0881958,7.0594764,11.4072266,7.3785071,11.4072266,7.7715125z M18.8640137,18.715971l-0.3510132,0.3510132
	c-0.3859863,0.3859863-0.8989868,0.5980225-1.4440308,0.5980225c-0.5459595,0-1.0579834-0.2120361-1.4439697-0.5980225
	l-4.3549805-4.3549805c-0.1550293,0.0780029-0.3120117,0.1519775-0.4730225,0.2199707
	c-0.9589844,0.4060059-1.9769897,0.6110229-3.0260005,0.6110229c-1.0479736,0-2.065979-0.2059937-3.0250244-0.6110229
	c-0.9259646-0.3919678-1.7569582-0.9519653-2.4699709-1.664978S1.002991,11.72299,0.6110232,10.7969646
	C0.2050174,9.8379803,0.0000003,8.8199749,0.0000003,7.7709632c0-1.0479736,0.2050171-2.065979,0.6110229-3.0249634
	c0.3919677-0.9260254,0.9519653-1.757019,1.664978-2.4700317S3.8200076,1.0029578,4.7459722,0.61099
	c0.9590454-0.4060059,1.9770508-0.6110229,3.0250244-0.6110229c1.0490108,0,2.0670161,0.2050171,3.0260005,0.6110229
	c0.9260254,0.3919678,1.757019,0.9519653,2.4700317,1.664978c0.7129517,0.7130127,1.2729492,1.5440063,1.664978,2.4700317
	c0.4060059,0.9589844,0.6110229,1.9769897,0.6110229,3.0249634c0,1.0490117-0.2050171,2.0670171-0.6110229,3.0260015
	c-0.1069946,0.2540283-0.2280273,0.5-0.3599854,0.7390137l4.2919922,4.2919922
	C19.6599731,16.623991,19.6599731,17.9200115,18.8640137,18.715971z M12.7420044,11.7189617
	c0.3029785-0.3800049,0.5629883-0.7959595,0.7730103-1.2409668c0.3869629-0.8209839,0.6040039-1.7380371,0.6040039-2.7070317
	c0-3.5050049-2.842041-6.3479614-6.348022-6.3479614c-3.5050049,0-6.3480225,2.8429565-6.3480225,6.3479614
	c0,3.506043,2.8430178,6.3480229,6.3480225,6.3480229c0.8599849,0,1.6790156-0.1710205,2.4260249-0.4799805
	c0.4599609-0.1900024,0.8930054-0.434021,1.2919922-0.7220459C11.9589844,12.5769939,12.3809814,12.1730022,12.7420044,11.7189617z
	 M17.8569946,16.8349895l-4.1019897-4.1030273c-0.1539917,0.1849976-0.3170166,0.3630371-0.4879761,0.5350342
	c-0.2400513,0.2399902-0.4950562,0.4630127-0.7610474,0.6679688l4.1260376,4.125
	c0.1199951,0.1210327,0.2789917,0.1810303,0.4369507,0.1810303c0.15802,0,0.3170166-0.0599976,0.4370117-0.1810303
	l0.3510132-0.3509521C18.098999,17.4679852,18.098999,17.0759563,17.8569946,16.8349895z"/>
</svg>
