<svg xmlns="http://www.w3.org/2000/svg" width="50" height="50" viewBox="0 0 50 50">
  <title>05_investment_cost</title>
  <path d="M31.07764,14.82062A24.1622,24.1622,0,0,0,32.751,9.353l.0127-.08643a3.15385,3.15385,0,0,0-.98437-2.73047,3.58111,3.58111,0,0,0-3.15918-.87988,18.61162,18.61162,0,0,1-7.3042.02344,3.56365,3.56365,0,0,0-3.15234.86475,3.14189,3.14189,0,0,0-.99609,2.77,25.82387,25.82387,0,0,0,1.67615,5.52393c-4.50989,3.60443-7.76355,10.82678-7.76355,17.31494C11.08008,39.94727,16.15381,44.417,25,44.417c8.84668,0,13.91992-4.46973,13.91992-12.26953C38.88721,25.63214,35.60016,18.40015,31.07764,14.82062Zm-11.416-6.66486a1.35941,1.35941,0,0,1,1.2085-.32178,20.89063,20.89063,0,0,0,8.2002-.0249,1.38055,1.38055,0,0,1,1.19922.32715.95762.95762,0,0,1,.31445.8291l-.01367.09961A22.1617,22.1617,0,0,1,28.957,14.19531H20.95313a23.55721,23.55721,0,0,1-1.61182-5.21826A.95014.95014,0,0,1,19.66162,8.15576ZM25,42.21777c-5.34668,0-11.71973-1.74609-11.71973-10.06445,0-5.72559,2.91455-12.313,6.82568-15.51709h9.731c3.915,3.18652,6.85449,9.77588,6.88379,15.51709C36.7207,40.47168,30.34668,42.21777,25,42.21777Zm5.00812-11.04144c0,1.84-1.381,3.404-3.772,3.864v2.208h-2.116v-2.025a9.26763,9.26763,0,0,1-3.587-.919l.643-2.484a7.839,7.839,0,0,0,3.496.92c1.195,0,2.024-.462,2.024-1.289s-.644-1.286-2.208-1.84c-2.207-.735-3.772-1.839-3.772-3.863,0-1.84,1.288-3.312,3.588-3.772v-2.024l2.11505.002v1.84a7.68919,7.68919,0,0,1,3.037.736l-.644,2.392a6.21042,6.21042,0,0,0-3.03595-.737c-1.38,0-1.84.644-1.84,1.196,0,.736.736,1.196,2.576,1.84C28.99609,28.13934,30.00812,29.2453,30.00812,31.17633Z"/>
</svg>
