<svg xmlns="http://www.w3.org/2000/svg" width="50" height="50" viewBox="0 0 50 50">
  <title>06_operating_cost</title>
  <path d="M9.70215,34.23633a3.68793,3.68793,0,0,0,.84082-.626l4.13086-4.10449v9.60742a.90119.90119,0,0,1-.90381.89648H10.60693a.90172.90172,0,0,1-.90479-.89648Zm33.249-20.71191h-.10059l-6.373.29785c-.35254.01563-.36426.04-.41113.1416-.0127.1123.10449.22754.15332.27637l.5625.56152c.46387.46484.92773.92871,1.39844,1.37988l.37012.35547L24.31836,30.67969l-8.35449-8.29883a.89078.89078,0,0,0-.64307-.2627.92609.92609,0,0,0-.64648.26563L6.9624,30.0459a.89532.89532,0,0,0-.00049,1.26855l.34766.34473a.89331.89331,0,0,0,.64307.26172.929.929,0,0,0,.647-.26562l6.72119-6.67871,8.35352,8.30078a.89471.89471,0,0,0,.64355.26074.933.933,0,0,0,.64795-.26562L40.165,18.1709l2.28027,2.248a1.16415,1.16415,0,0,0,.25977.22461c.21875-.1084.28809-.20312.30176-.5332.08887-1.98926.18457-3.96973.28125-5.958l.0127-.248a.51563.51563,0,0,0-.05371-.31934A.47642.47642,0,0,0,42.95117,13.52441ZM20.86081,21.9557a6.73016,6.73016,0,0,0,1.913.544c.517.085.533.108.541.637,0,.245.007.483.007.728a.43418.43418,0,0,0,.463.491c.363.007.718.007,1.08,0a.41331.41331,0,0,0,.448-.46c0-.33.015-.66,0-.997a.52848.52848,0,0,1,.455-.598,3.692,3.692,0,0,0,1.883-1.196,3.36364,3.36364,0,0,0-1.096-5.129,17.47425,17.47425,0,0,0-1.89-.851,4.01728,4.01728,0,0,1-1.034-.583.89161.89161,0,0,1,.224-1.594,1.97785,1.97785,0,0,1,.64-.131,4.8871,4.8871,0,0,1,2.392.468c.378.184.501.123.633-.268.131-.414.247-.828.37-1.25a.43328.43328,0,0,0-.285-.583,5.8532,5.8532,0,0,0-1.505-.444c-.687-.108-.687-.108-.687-.79-.007-.966-.007-.966-.972-.966h-.424c-.455.015-.533.092-.54.544-.008.207,0,.407,0,.614,0,.605-.008.598-.587.805a3.22006,3.22006,0,0,0-2.368,2.982,3.04482,3.04482,0,0,0,1.736,2.921,18.91462,18.91462,0,0,0,2.175.966,3.39285,3.39285,0,0,1,.795.46,1.07688,1.07688,0,0,1-.262,1.894,2.72709,2.72709,0,0,1-1.397.184,6.14487,6.14487,0,0,1-2.129-.637c-.394-.207-.51-.153-.641.276-.115.368-.216.736-.316,1.104-.147.506-.1.629.378.859M18.85449,40.0166h3.16406a.90037.90037,0,0,0,.90381-.89551V36.0498a3.71084,3.71084,0,0,1-1.21777-.80566l-3.75391-3.72949v7.60645A.90037.90037,0,0,0,18.85449,40.0166Zm8.06836-4.77246a3.625,3.625,0,0,1-.72461.55859v3.31836a.9011.9011,0,0,0,.9043.89551H30.2666a.90047.90047,0,0,0,.9043-.89551V31.209a.87709.87709,0,0,0-.0166-.16895Zm7.5166,3.8623a.90006.90006,0,0,0,.90332.89453h3.16406a.90027.90027,0,0,0,.9043-.89453V22.82715l-4.97168,4.94141Z"/>
</svg>
