<svg xmlns="http://www.w3.org/2000/svg" width="50" height="50" viewBox="0 0 50 50">
  <title>07_energy_demand</title>
  <path d="M35.4375,20.96191,21.27295,42.21582a1.44,1.44,0,0,1-1.00293.51465.9406.9406,0,0,1-.54687-.13867A1.15877,1.15877,0,0,1,19.043,41.25l2.87012-13.44238h-6.356a1.43635,1.43635,0,0,1-.94629-.44629,1.10919,1.10919,0,0,1-.16406-1.14648l5.4707-17.99707a1.11883,1.11883,0,0,1,.561-.77051,1.14415,1.14415,0,0,1,.98-.06641,1.07141,1.07141,0,0,1,.73291.54688,1.13178,1.13178,0,0,1,.06787.98047L17.188,25.33594h6.22412a1.16048,1.16048,0,0,1,1.00244.51465,1.0014,1.0014,0,0,1,.209,1.02051l-1.84521,8.56348,9.2959-13.91113H27.33887a1.16333,1.16333,0,0,1-1.00293-.51562,1.396,1.396,0,0,1-.13184-1.1748L30.876,9.74121H24.19727a1.23584,1.23584,0,0,1,0-2.47168h8.63965a1.15691,1.15691,0,0,1,1.00293.51758,1.37591,1.37591,0,0,1,.13086,1.17578L29.30078,19.05176H34.4082a1.27187,1.27187,0,0,1,1.08105.59277l.02832.04883A1.29486,1.29486,0,0,1,35.4375,20.96191Z"/>
</svg>
