<svg xmlns="http://www.w3.org/2000/svg" width="50" height="50" viewBox="0 0 50 50">
  <title>08_co2_emission</title>
  <path d="M43.2832,6.7168l-1.53906.05273c-.72461.02344-17.84082.65918-25.59912,8.417C6.98389,24.34766,10.10059,31.4541,12.77393,34.875l.13623.1748-5.78906,5.79a1.44287,1.44287,0,0,0,0,2.03906,1.48047,1.48047,0,0,0,2.03955,0l5.78174-5.78418.1748.13965a11.93688,11.93688,0,0,0,7.478,2.708c4.06982,0,8.18018-2.04785,12.21826-6.08691C42.501,26.168,43.207,8.98438,43.2334,8.25684Zm-3.05859,3.333c-.40332,4.709-1.9375,16.25586-7.44922,21.76758-3.42969,3.42969-6.95068,5.24316-10.18115,5.24316a8.90794,8.90794,0,0,1-5.36865-1.84082l-.23389-.17285,4.291-4.291,6.92725,1.668a1.44239,1.44239,0,0,0,1.56641-2.1543,1.43784,1.43784,0,0,0-.89355-.64941l-5.21094-1.25293L27.498,24.54l3.83105.877a1.44175,1.44175,0,1,0,.64453-2.81055l-2.06836-.47363,4.67578-4.6748A1.44114,1.44114,0,1,0,32.543,15.41992l-4.69629,4.69629-.4873-2.12207a1.44117,1.44117,0,0,0-2.80957.64355l.89063,3.88574-3.82666,3.82617L20.34521,21.085A1.446,1.446,0,0,0,18.605,20.02051a1.43847,1.43847,0,0,0-1.061,1.7373l1.6792,6.98145-4.27246,4.27246-.17285-.2334c-3.332-4.501-2.123-10.02344,3.40381-15.55176,5.51563-5.51367,17.06348-7.04492,21.77246-7.44727l.2959-.02539Z"/>
</svg>
