<svg xmlns="http://www.w3.org/2000/svg" width="50" height="50" viewBox="0 0 50 50">
  <title>09_water_demand</title>
  <g>
    <path d="M26.07343,7.69562a1.35368,1.35368,0,0,0-2.147,0c-1.205,1.551-11.777,15.348-11.777,22.08a12.85214,12.85214,0,1,0,25.701,0C37.8504,23.04358,27.27942,9.24658,26.07343,7.69562Zm-1.073,32.358a10.20892,10.20892,0,0,1-10.11505-10.278c0-4.397,6.537-14.118,10.11505-18.94,3.578,4.822,10.115,14.543,10.115,18.94A10.2082,10.2082,0,0,1,25.00043,40.05359Z"/>
    <path d="M30.843,29.30878a1.20823,1.20823,0,0,0-1.208,1.208,4.10561,4.10561,0,0,1-4.102,4.101,1.208,1.208,0,0,0,0,2.416,6.52524,6.52524,0,0,0,6.518-6.517A1.20823,1.20823,0,0,0,30.843,29.30878Z"/>
  </g>
</svg>
