<?xml version="1.0" encoding="utf-8"?>
<!-- Generator: Adobe Illustrator 21.1.0, SVG Export Plug-In . SVG Version: 6.00 Build 0)  -->
<svg version="1.1" id="Ebene_1" xmlns="http://www.w3.org/2000/svg" xmlns:xlink="http://www.w3.org/1999/xlink" x="0px" y="0px"
	 viewBox="0 0 18.3384819 18.6160011" style="enable-background:new 0 0 18.3384819 18.6160011;" xml:space="preserve">
<style type="text/css">
	.st0{fill:#FFFFFF;}
	.st1{clip-path:url(#SVGID_2_);fill:url(#SVGID_3_);}
	.st2{clip-path:url(#SVGID_5_);}
	.st3{clip-path:url(#SVGID_7_);fill:#F5F5F5;}
	.st4{opacity:0.550003;clip-path:url(#SVGID_9_);}
	.st5{clip-path:url(#SVGID_11_);fill:#D5D5D5;}
	.st6{clip-path:url(#SVGID_11_);fill:#EAEAEA;}
	.st7{clip-path:url(#SVGID_5_);fill:url(#SVGID_12_);}
	.st8{fill:#D5D5D5;}
	.st9{fill:#929191;}
	.st10{fill:#CCD1D9;}
	.st11{clip-path:url(#SVGID_14_);fill:#424A54;}
	.st12{clip-path:url(#SVGID_14_);fill:#CCD1D9;}
	.st13{clip-path:url(#SVGID_14_);fill:#E5E8ED;}
	.st14{clip-path:url(#SVGID_14_);fill:#ABB2BD;}
	.st15{clip-path:url(#SVGID_14_);fill:#A1D469;}
	.st16{clip-path:url(#SVGID_14_);fill:#ED5466;}
	.st17{fill:#030005;}
	.st18{fill:#211A14;}
</style>
<path d="M18.1834526,11.7869101l-2.151001-1.4969482c0-0.2810059,0.0939941-0.5618896,0.0939941-0.9349365
	c0-0.3740234,0-0.6550293-0.0939941-0.9360352l1.9650269-1.5900879c0.1870117-0.1879883,0.1870117-0.375,0.0929565-0.5609131
	l-1.8709717-3.2740481c-0.0930176-0.0939941-0.2810068-0.1870117-0.5609751-0.0939941L13.319438,3.8350055
	c-0.4679565-0.3740234-1.0279541-0.6540527-1.5899658-0.9350586l-0.3740234-2.4329834
	c0.0930176-0.2799072-0.1870117-0.4669189-0.3739624-0.4669189H7.2394824c-0.1870117,0-0.467041,0.1870117-0.467041,0.3740234
	l-0.375,2.5258789C5.8364673,3.0869586,5.3684497,3.4609821,4.8074756,3.8350055L2.5624804,2.8999469
	c-0.2800293-0.0930176-0.467041,0-0.6550293,0.1870117L0.0364794,6.3619833c-0.0930176,0.0919189,0,0.3729248,0.1870117,0.5599365
	L2.188457,8.4189901c0,0.2810059-0.0930176,0.5620117-0.0930176,0.9360352c0,0.3730469,0,0.6539307,0.0930176,0.9349365
	l-1.9649658,1.5899658c-0.1870117,0.1879883-0.1870117,0.375-0.0930176,0.5620117l1.8709717,3.2740479
	c0.0939941,0.0930176,0.2810059,0.1859131,0.5610352,0.0930176l2.3389893-0.9349365
	c0.46698,0.3739014,1.0289917,0.6549072,1.5899658,0.9349365l0.3740234,2.4329824
	c0,0.1870117,0.1870117,0.3740234,0.4680176,0.3740234h3.7409663c0.1870117,0,0.4680176-0.1870117,0.4680176-0.3740234
	l0.3740234-2.4329824c0.5609741-0.2800293,1.1229858-0.5610352,1.5910034-0.9349365l2.3379517,0.9349365
	c0.1870127,0.0928955,0.4680185,0,0.5610361-0.1860352l1.8709717-3.2750244
	C18.3704643,12.1609335,18.3704643,11.8799276,18.1834526,11.7869101z M9.1104536,12.6279745
	c-1.7769771,0-3.2739863-1.4959717-3.2739863-3.2729492c0-1.7780762,1.4970093-3.2740479,3.2739863-3.2740479
	c1.7780151,0,3.2739868,1.4959717,3.2739868,3.2740479C12.3844404,11.1320028,10.8884687,12.6279745,9.1104536,12.6279745z"/>
</svg>
