<?xml version="1.0" encoding="utf-8"?>
<!-- Generator: Adobe Illustrator 21.1.0, SVG Export Plug-In . SVG Version: 6.00 Build 0)  -->
<svg version="1.1" id="Ebene_1" xmlns="http://www.w3.org/2000/svg" xmlns:xlink="http://www.w3.org/1999/xlink" x="0px" y="0px"
	 viewBox="0 0 194.34375 42.9230003" style="enable-background:new 0 0 194.34375 42.9230003;" xml:space="preserve">
<style type="text/css">
	.st0{fill:#FFFFFF;}
	.st1{clip-path:url(#SVGID_2_);fill:url(#SVGID_3_);}
	.st2{clip-path:url(#SVGID_5_);}
	.st3{clip-path:url(#SVGID_7_);fill:#F5F5F5;}
	.st4{opacity:0.550003;clip-path:url(#SVGID_9_);}
	.st5{clip-path:url(#SVGID_11_);fill:#D5D5D5;}
	.st6{clip-path:url(#SVGID_11_);fill:#EAEAEA;}
	.st7{clip-path:url(#SVGID_5_);fill:url(#SVGID_12_);}
	.st8{fill:#D5D5D5;}
	.st9{fill:#929191;}
	.st10{fill:#CCD1D9;}
	.st11{clip-path:url(#SVGID_14_);fill:#424A54;}
	.st12{clip-path:url(#SVGID_14_);fill:#CCD1D9;}
	.st13{clip-path:url(#SVGID_14_);fill:#E5E8ED;}
	.st14{clip-path:url(#SVGID_14_);fill:#ABB2BD;}
	.st15{clip-path:url(#SVGID_14_);fill:#A1D469;}
	.st16{clip-path:url(#SVGID_14_);fill:#ED5466;}
	.st17{fill:#030005;}
	.st18{fill:#211A14;}
</style>
<g>
	<g>
		<path class="st0" d="M49.5014648,4.3204613h8.1079102v1.8203125h-6.0249023v3.6416016h4.8984375v1.8017578h-4.8984375v3.7539062
			h6.0249023v1.8388672h-8.1079102V4.3204613z"/>
		<path class="st0" d="M65.8271484,7.9425316l-0.074707,1.6142578c0,0-1.4829102-0.1503906-2.1962891-0.1503906
			c-1.9516602,0-2.4023438,0.7890625-2.4023438,2.9472656c0,2.4023438,0.3945312,3.2089844,2.4213867,3.2089844
			c0.7128906,0,2.1958008-0.1503906,2.1958008-0.1503906l0.0561523,1.6328125c0,0-1.8955078,0.3378906-2.8525391,0.3378906
			c-2.890625,0-3.8852539-1.4257812-3.8852539-5.0292969c0-3.359375,1.1264648-4.7675781,3.9228516-4.7675781
			C64.0068359,7.5860863,65.8271484,7.9425316,65.8271484,7.9425316z"/>
		<path class="st0" d="M75.4912109,12.4288597c0,3.1152344-0.9570312,4.9541016-4.1850586,4.9541016
			c-3.2094727,0-4.1855469-1.8388672-4.1855469-4.9541016c0-3.0410156,1.0512695-4.8427734,4.1855469-4.8427734
			S75.4912109,9.3878441,75.4912109,12.4288597z M73.4267578,12.4288597c0-2.1777344-0.4692383-3.1162109-2.1206055-3.1162109
			c-1.6518555,0-2.1206055,0.9384766-2.1206055,3.1162109c0,2.1767578,0.375,3.2275391,2.1206055,3.2275391
			S73.4267578,14.6056175,73.4267578,12.4288597z"/>
		<path class="st0" d="M76.953125,18.8282738c0-0.9570312,0.4692383-1.5390625,1.4267578-2.2705078
			c-0.3945312-0.2626953-0.6196289-0.7880859-0.6196289-1.3701172c0-0.4316406,0.6757812-1.5019531,0.6757812-1.5019531
			c-0.6943359-0.4130859-1.3515625-1.1259766-1.3515625-2.8154297c0-2.3642578,1.5957031-3.265625,3.7539062-3.265625
			c0.8632812,0,1.9145508,0.2441406,1.9145508,0.2441406l2.9091797-0.0751953V9.42593l-1.5585938-0.09375
			c0.2441406,0.3183594,0.5078125,0.8066406,0.5078125,1.5380859c0,2.5527344-1.3330078,3.2470703-3.8291016,3.2470703
			c-0.1879883,0-0.6572266-0.0371094-0.8261719-0.0751953c0,0-0.2626953,0.6386719-0.2626953,0.8828125
			c0,0.6005859,0.206543,0.7128906,2.0273438,0.7314453c2.9648438,0.0185547,3.8847656,0.6386719,3.8847656,2.796875
			c0,2.2148438-1.8203125,3.078125-4.3354492,3.078125C78.4360352,21.5313988,76.953125,20.9679222,76.953125,18.8282738z
			 M79.7124023,17.3087425c-0.5258789,0.4316406-0.7509766,0.75-0.7509766,1.3320312
			c0,0.8632812,0.6196289,1.2197266,2.3271484,1.2197266c1.5200195,0,2.2709961-0.375,2.2709961-1.2949219
			c0-1.0136719-0.4873047-1.1259766-2.0078125-1.1445312C80.9697266,17.4210472,79.7124023,17.3087425,79.7124023,17.3087425z
			 M82.5839844,10.870266c0-1.1259766-0.4882812-1.6699219-1.7456055-1.6699219
			c-1.2011719,0-1.7265625,0.5439453-1.7265625,1.6699219c0,1.1455078,0.5253906,1.6708984,1.7265625,1.6708984
			C82.0957031,12.5411644,82.5839844,12.0157738,82.5839844,10.870266z"/>
		<path class="st0" d="M87.2734375,3.8888206h2.0458984v13.2880859h-2.0458984V3.8888206z"/>
		<path class="st0" d="M99.6972656,12.4288597c0,3.1152344-0.9570312,4.9541016-4.1855469,4.9541016
			c-3.2089844,0-4.1855469-1.8388672-4.1855469-4.9541016c0-3.0410156,1.0507812-4.8427734,4.1855469-4.8427734
			S99.6972656,9.3878441,99.6972656,12.4288597z M97.6328125,12.4288597c0-2.1777344-0.4697266-3.1162109-2.1210938-3.1162109
			c-1.6523438,0-2.1210938,0.9384766-2.1210938,3.1162109c0,2.1767578,0.375,3.2275391,2.1210938,3.2275391
			S97.6328125,14.6056175,97.6328125,12.4288597z"/>
		<path class="st0" d="M109.6611328,12.3536644c0,3.8847656-1.2197266,5.0292969-4.5791016,5.0292969
			c-0.9951172,0-3.4355469-0.2246094-3.4355469-0.2246094V3.8888206h2.0273438v4.2607422
			c0,0,1.2949219-0.5634766,2.3457031-0.5634766C108.5722656,7.5860863,109.6611328,8.8438988,109.6611328,12.3536644z
			 M107.578125,12.3536644c0-2.1210938-0.5449219-2.9472656-1.8027344-2.9472656
			c-0.9941406,0-2.1015625,0.3759766-2.1015625,0.3759766v5.7050781c0,0,1.0322266,0.0751953,1.4082031,0.0751953
			C107.1650391,15.5626488,107.578125,14.6427269,107.578125,12.3536644z"/>
		<path class="st0" d="M118.9121094,15.4317894l0.0371094,1.5195312c0,0-2.1396484,0.4316406-3.7910156,0.4316406
			c-2.8154297,0-3.9042969-1.5009766-3.9042969-4.8046875c0-3.4345703,1.4824219-4.9921875,4.0722656-4.9921875
			c2.6289062,0,3.9414062,1.3701172,3.9414062,4.2978516l-0.1308594,1.4638672h-5.8183594
			c0.0195312,1.5019531,0.5820312,2.2529297,2.1396484,2.2529297
			C116.9414062,15.6007347,118.9121094,15.4317894,118.9121094,15.4317894z M117.2597656,11.7716331
			c0-1.8769531-0.5625-2.4960938-1.9335938-2.4960938c-1.3886719,0-2.0078125,0.6943359-2.0263672,2.4960938H117.2597656z"/>
	</g>
	<g>
		<path class="st0" d="M123.0527344,4.2013206c1.6464844,0,2.7285156,1.2832031,2.7285156,2.8183594
			c0,1.5859375-1.0820312,2.8183594-2.7285156,2.8183594c-1.5751953,0-2.7265625-1.2324219-2.7265625-2.8183594
			C120.3261719,5.4034691,121.4775391,4.2013206,123.0527344,4.2013206z M123.0527344,9.3019066
			c1.2636719,0,2.1826172-1.0195312,2.1826172-2.2822266c0-1.2529297-0.9394531-2.2929688-2.1826172-2.2929688
			c-1.2519531,0-2.1816406,1.0400391-2.1816406,2.2929688C120.8710938,8.2716331,121.8212891,9.3019066,123.0527344,9.3019066z
			 M123.1142578,7.5851097h-0.4248047v1h-0.8076172V5.464016h1.2626953c0.6865234,0,1.1513672,0.2724609,1.1513672,1.0097656
			c0,0.515625-0.1113281,0.7675781-0.4443359,0.9804688l0.484375,1.1308594h-0.8476562L123.1142578,7.5851097z
			 M122.6796875,6.9786644h0.4140625c0.2832031,0,0.4238281-0.1611328,0.4238281-0.4443359
			c0-0.3027344-0.1503906-0.4541016-0.4746094-0.4541016h-0.3632812V6.9786644z"/>
	</g>
	<g>
		<path class="st0" d="M54.3808594,25.2501488c2.5527344,0,3.9228516,0.9570312,3.9228516,3.3408203
			c0,1.5576172-0.4882812,2.3271484-1.5205078,2.890625c1.1074219,0.4316406,1.8393555,1.2197266,1.8393555,2.984375
			c0,2.6269531-1.5952148,3.640625-4.0913086,3.640625h-5.0297852V25.2501488H54.3808594z M51.5844727,27.0519066v3.6787109
			h2.7587891c1.2763672,0,1.8393555-0.6376953,1.8393555-1.8955078c0-1.2382812-0.6381836-1.7832031-1.9140625-1.7832031H51.5844727
			z M51.5844727,32.495266v3.8095703h2.8339844c1.2949219,0,2.0644531-0.4130859,2.0644531-1.9521484
			c0-1.4638672-1.0883789-1.8574219-2.1020508-1.8574219H51.5844727z"/>
		<path class="st0" d="M68.3989258,28.722805v9.3837891H66.371582v-0.5820312c0,0-1.3696289,0.7880859-2.5336914,0.7880859
			c-2.6835938,0-3.246582-1.3886719-3.246582-4.6914062V28.722805h2.0454102v4.9169922
			c0,2.0830078,0.1313477,2.8525391,1.5957031,2.8525391c1.1259766,0,2.1391602-0.4873047,2.1391602-0.4873047V28.722805H68.3989258
			z"/>
		<path class="st0" d="M70.7236328,24.9688988h2.0458984v2.1582031h-2.0458984V24.9688988z M70.7236328,28.722805h2.0458984
			v9.3837891h-2.0458984V28.722805z"/>
		<path class="st0" d="M75.1337891,24.8185081h2.0454102v13.2880859h-2.0454102V24.8185081z"/>
		<path class="st0" d="M87.2939453,38.1065941h-2.0263672v-0.4882812c0,0-1.3710938,0.6943359-2.515625,0.6943359
			c-2.4023438,0-3.546875-1.2568359-3.546875-4.8789062c0-3.3974609,1.2197266-4.9179688,3.9042969-4.9179688
			c0.75,0,2.0263672,0.2255859,2.1386719,0.2441406v-3.9414062h2.0458984V38.1065941z M85.2480469,36.0235863v-5.5556641
			c-0.1123047-0.0185547-1.2011719-0.1875-1.9892578-0.1875c-1.3886719,0-1.9892578,1.0136719-1.9892578,3.1533203
			c0,2.4023438,0.6567383,3.0585938,1.8017578,3.0585938C84.140625,36.4923363,85.2480469,36.0235863,85.2480469,36.0235863z"/>
		<path class="st0" d="M89.6191406,24.9688988h2.0458984v2.1582031h-2.0458984V24.9688988z M89.6191406,28.722805h2.0458984
			v9.3837891h-2.0458984V28.722805z"/>
		<path class="st0" d="M93.9726562,38.1065941V28.722805H96v0.5810547c0,0,1.3691406-0.7880859,2.5898438-0.7880859
			c2.6083984,0,3.2460938,1.4833984,3.2460938,4.5605469v5.0302734h-2.0263672v-4.9736328
			c0-1.8769531-0.2441406-2.796875-1.6708984-2.796875c-1.0878906,0-2.1201172,0.4882812-2.1201172,0.4882812v7.2822266H93.9726562z
			"/>
		<path class="st0" d="M103.5605469,39.7579613c0-0.9570312,0.46875-1.5390625,1.4267578-2.2705078
			c-0.3945312-0.2626953-0.6201172-0.7880859-0.6201172-1.3701172c0-0.4316406,0.6757812-1.5019531,0.6757812-1.5019531
			c-0.6933594-0.4130859-1.3515625-1.1259766-1.3515625-2.8154297c0-2.3642578,1.5957031-3.265625,3.7539062-3.265625
			c0.8632812,0,1.9150391,0.2441406,1.9150391,0.2441406l2.9091797-0.0751953v1.6523438l-1.5585938-0.09375
			c0.2441406,0.3183594,0.5078125,0.8066406,0.5078125,1.5380859c0,2.5527344-1.3330078,3.2470703-3.8291016,3.2470703
			c-0.1884766,0-0.6572266-0.0371094-0.8261719-0.0751953c0,0-0.2626953,0.6386719-0.2626953,0.8828125
			c0,0.6005859,0.2070312,0.7128906,2.0273438,0.7314453c2.9648438,0.0185547,3.8847656,0.6386719,3.8847656,2.796875
			c0,2.2148438-1.8203125,3.078125-4.3359375,3.078125C105.0429688,42.4610863,103.5605469,41.8976097,103.5605469,39.7579613z
			 M106.3203125,38.23843c-0.5263672,0.4316406-0.7519531,0.75-0.7519531,1.3320312
			c0,0.8632812,0.6201172,1.2197266,2.328125,1.2197266c1.5195312,0,2.2705078-0.375,2.2705078-1.2949219
			c0-1.0136719-0.4873047-1.1259766-2.0078125-1.1445312C107.5771484,38.3507347,106.3203125,38.23843,106.3203125,38.23843z
			 M109.1914062,31.7999535c0-1.1259766-0.4882812-1.6699219-1.7460938-1.6699219
			c-1.2011719,0-1.7265625,0.5439453-1.7265625,1.6699219c0,1.1455078,0.5253906,1.6708984,1.7265625,1.6708984
			C108.703125,33.4708519,109.1914062,32.9454613,109.1914062,31.7999535z"/>
		<path class="st0" d="M117.671875,31.7442894c0-4.2978516,1.2197266-6.7001953,5.2363281-6.7001953
			c4.015625,0,5.2167969,2.3837891,5.2167969,6.7001953c0,4.3730469-1.2011719,6.5683594-5.2167969,6.5683594
			C118.8730469,38.3126488,117.671875,36.0792503,117.671875,31.7442894z M125.9667969,31.7442894
			c0-3.1904297-0.5820312-4.8798828-3.0585938-4.8798828c-2.4775391,0-3.078125,1.6894531-3.078125,4.8798828
			c0,3.2089844,0.5820312,4.7480469,3.078125,4.7480469S125.9667969,35.0099144,125.9667969,31.7442894z"/>
		<path class="st0" d="M130.28125,28.722805h2.0273438v0.5810547c0,0,1.2949219-0.7880859,2.4208984-0.7880859
			c2.4394531,0,3.5849609,1.3886719,3.5849609,4.8046875c0,3.8662109-1.3144531,4.9921875-4.2050781,4.9921875
			c-0.7695312,0-1.6699219-0.1494141-1.7822266-0.1689453v3.9980469H130.28125V28.722805z M132.3271484,30.8624535v5.5361328
			c0.09375,0.0185547,0.9951172,0.1503906,1.6513672,0.1503906c1.7460938,0,2.2519531-0.9199219,2.2519531-3.2285156
			c0-2.1953125-0.6943359-2.984375-1.8574219-2.984375C133.3779297,30.3360863,132.3271484,30.8624535,132.3271484,30.8624535z"/>
		<path class="st0" d="M142.7783203,30.4679222v4.1289062c0,1.4082031,0.0566406,1.8955078,1.0322266,1.8955078
			c0.5253906,0,1.5390625-0.0556641,1.5390625-0.0556641l0.09375,1.6328125c0,0-1.2578125,0.2431641-1.9140625,0.2431641
			c-2.1210938,0-2.7773438-0.7880859-2.7773438-3.4902344v-4.3544922h-1.2011719V28.722805h1.2011719v-2.7216797h2.0263672
			v2.7216797h2.5908203v1.7451172H142.7783203z"/>
		<path class="st0" d="M146.9804688,24.9688988h2.046875v2.1582031h-2.046875V24.9688988z M146.9804688,28.722805h2.046875
			v9.3837891h-2.046875V28.722805z"/>
		<path class="st0" d="M151.3339844,38.1065941V28.722805h2.0273438v0.5810547c0,0,1.3320312-0.7880859,2.4394531-0.7880859
			c1.1455078,0,1.8583984,0.2822266,2.3847656,0.9199219c0,0,1.7070312-0.9199219,3.2275391-0.9199219
			c2.5517578,0,3.2470703,1.3701172,3.2470703,4.5605469v5.0302734h-2.0273438v-4.9736328
			c0-1.8769531-0.2246094-2.796875-1.5957031-2.796875c-1.03125,0-2.1386719,0.5068359-2.1386719,0.5068359
			c0.0742188,0.1884766,0.1503906,1.4833984,0.1503906,2.4023438v4.8613281h-2.0273438v-4.8232422
			c0-2.0830078-0.2070312-2.9472656-1.6142578-2.9472656c-1.0517578,0-2.0263672,0.4882812-2.0263672,0.4882812v7.2822266
			H151.3339844z"/>
		<path class="st0" d="M166.9462891,24.9688988h2.0458984v2.1582031h-2.0458984V24.9688988z M166.9462891,28.722805h2.0458984
			v9.3837891h-2.0458984V28.722805z"/>
		<path class="st0" d="M170.8867188,28.722805h6.9628906v1.8203125l-4.5039062,5.7431641h4.5039062v1.8203125h-6.9628906v-1.8203125
			l4.5234375-5.7431641h-4.5234375V28.722805z"/>
		<path class="st0" d="M186.875,36.3614769l0.0380859,1.5195312c0,0-2.1396484,0.4316406-3.7919922,0.4316406
			c-2.8144531,0-3.9033203-1.5009766-3.9033203-4.8046875c0-3.4345703,1.4833984-4.9921875,4.0732422-4.9921875
			c2.6269531,0,3.9414062,1.3701172,3.9414062,4.2978516l-0.1318359,1.4638672h-5.8183594
			c0.0185547,1.5019531,0.5820312,2.2529297,2.1396484,2.2529297C184.9042969,36.5304222,186.875,36.3614769,186.875,36.3614769z
			 M185.2236328,32.7013206c0-1.8769531-0.5634766-2.4960938-1.9326172-2.4960938
			c-1.3886719,0-2.0087891,0.6943359-2.0273438,2.4960938H185.2236328z"/>
		<path class="st0" d="M189.1259766,28.722805h2.0263672v1.1259766c0,0,1.5957031-1.0322266,3.1914062-1.3330078v2.0458984
			c-1.7080078,0.3378906-3.171875,0.9951172-3.171875,0.9951172v6.5498047h-2.0458984V28.722805z"/>
	</g>
</g>
<g>
	<defs>
		<path id="SVGID_1_" d="M3.812,29.993V12.9309998l14.7740002-8.5279999l6.7799988,3.9160004l-13.8689995,8.0060005
			L15.309,18.526001l13.868-8.0050011l4.1820011,2.4160004v5.1060009l-14.7730007,8.5309982v4.4050007l14.7730007-8.5300007V29.993
			l-14.7730007,8.5270004L3.812,29.993z M18.5869999,0L0,10.7299995v21.4650002l18.5860004,10.7280006l18.5860004-10.7280006
			V10.7360001L18.5869999,0z"/>
	</defs>
	<clipPath id="SVGID_2_">
		<use xlink:href="#SVGID_1_"  style="overflow:visible;"/>
	</clipPath>
	
		<linearGradient id="SVGID_3_" gradientUnits="userSpaceOnUse" x1="-481.6835938" y1="1498.6993408" x2="-480.6835938" y2="1498.6993408" gradientTransform="matrix(37.1721535 0 0 -37.1721535 17905.2167969 55731.34375)">
		<stop  offset="0" style="stop-color:#00C2F9"/>
		<stop  offset="0.143242" style="stop-color:#00C2F9"/>
		<stop  offset="0.999506" style="stop-color:#00CB67"/>
		<stop  offset="1" style="stop-color:#00CB67"/>
	</linearGradient>
	<rect x="0" y="0.0000038" class="st1" width="37.1719933" height="42.9229965"/>
</g>
</svg>
