<?xml version="1.0" encoding="utf-8"?>
<!-- Generator: Adobe Illustrator 21.1.0, SVG Export Plug-In . SVG Version: 6.00 Build 0)  -->
<svg version="1.1" id="Ebene_1" xmlns="http://www.w3.org/2000/svg" xmlns:xlink="http://www.w3.org/1999/xlink" x="0px" y="0px"
	 viewBox="0 0 21.819828 20.7759991" style="enable-background:new 0 0 21.819828 20.7759991;" xml:space="preserve">
<style type="text/css">
	.st0{fill:#FFFFFF;}
	.st1{clip-path:url(#SVGID_2_);fill:url(#SVGID_3_);}
	.st2{clip-path:url(#SVGID_5_);}
	.st3{clip-path:url(#SVGID_7_);fill:#F5F5F5;}
	.st4{opacity:0.550003;clip-path:url(#SVGID_9_);}
	.st5{clip-path:url(#SVGID_11_);fill:#D5D5D5;}
	.st6{clip-path:url(#SVGID_11_);fill:#EAEAEA;}
	.st7{clip-path:url(#SVGID_5_);fill:url(#SVGID_12_);}
	.st8{fill:#D5D5D5;}
	.st9{fill:#929191;}
	.st10{fill:#CCD1D9;}
	.st11{clip-path:url(#SVGID_14_);fill:#424A54;}
	.st12{clip-path:url(#SVGID_14_);fill:#CCD1D9;}
	.st13{clip-path:url(#SVGID_14_);fill:#E5E8ED;}
	.st14{clip-path:url(#SVGID_14_);fill:#ABB2BD;}
	.st15{clip-path:url(#SVGID_14_);fill:#A1D469;}
	.st16{clip-path:url(#SVGID_14_);fill:#ED5466;}
	.st17{fill:#030005;}
	.st18{fill:#211A14;}
</style>
<path d="M21.4466305,9.0599995L17.0756302,13.434l1.0929985,6.0919991c0,0.4689999-0.1559982,0.9380016-0.4679985,1.0939999
	c-0.1560001,0.1560001-0.4689999,0.1560001-0.625,0.1560001s-0.3120003,0-0.4680004-0.1560001l-5.6199989-2.8120003
	l-5.4630003,2.8120003c-0.4679995,0.1560001-0.9369993,0.1560001-1.2489996-0.1559982
	c-0.3120003-0.3130016-0.4680004-0.7820015-0.4680004-1.0940018l1.0930004-6.0919991L0.3736305,9.0599995
	c-0.3120003-0.3119993-0.4689999-0.7809992-0.3120003-1.25C0.2176303,7.342,0.5296306,7.0290003,0.997631,7.0290003
	l6.2439995-0.7810001l2.6540003-5.467C10.05163,0.3120003,10.5196304,0,10.9876308,0
	c0.4689999,0,0.7809992,0.3120003,1.0929995,0.625l2.6540003,5.6230001l6.0879993,0.9369993
	c0.4680004,0,0.7799988,0.3130007,0.9359989,0.7810001C21.914629,8.2790003,21.7586288,8.7480001,21.4466305,9.0599995"/>
</svg>
