<?xml version="1.0" encoding="utf-8"?>
<!-- Generator: Adobe Illustrator 21.1.0, SVG Export Plug-In . SVG Version: 6.00 Build 0)  -->
<svg version="1.1" id="Ebene_1" xmlns="http://www.w3.org/2000/svg" xmlns:xlink="http://www.w3.org/1999/xlink" x="0px" y="0px"
	 viewBox="0 0 19.8640003 16.8080006" style="enable-background:new 0 0 19.8640003 16.8080006;" xml:space="preserve">
<style type="text/css">
	.st0{fill:#FFFFFF;}
	.st1{clip-path:url(#SVGID_2_);fill:url(#SVGID_3_);}
	.st2{clip-path:url(#SVGID_5_);}
	.st3{clip-path:url(#SVGID_7_);fill:#F5F5F5;}
	.st4{opacity:0.550003;clip-path:url(#SVGID_9_);}
	.st5{clip-path:url(#SVGID_11_);fill:#D5D5D5;}
	.st6{clip-path:url(#SVGID_11_);fill:#EAEAEA;}
	.st7{clip-path:url(#SVGID_5_);fill:url(#SVGID_12_);}
	.st8{fill:#D5D5D5;}
	.st9{fill:#929191;}
	.st10{fill:#CCD1D9;}
	.st11{clip-path:url(#SVGID_14_);fill:#424A54;}
	.st12{clip-path:url(#SVGID_14_);fill:#CCD1D9;}
	.st13{clip-path:url(#SVGID_14_);fill:#E5E8ED;}
	.st14{clip-path:url(#SVGID_14_);fill:#ABB2BD;}
	.st15{clip-path:url(#SVGID_14_);fill:#A1D469;}
	.st16{clip-path:url(#SVGID_14_);fill:#ED5466;}
	.st17{fill:#030005;}
	.st18{fill:#211A14;}
</style>
<path d="M18.3362999,5.7300014c0,0.1110001-0.0359993,0.2030001-0.1070004,0.2749996
	C18.157299,6.0760012,18.0653,6.1120014,17.9542999,6.1120014h-3.8199997c-0.1110001,0-0.2030001-0.0360003-0.2739992-0.1070004
	c-0.0720005-0.0719995-0.1070004-0.1639996-0.1070004-0.2749996V3.4380016c0-0.1120005,0.0349998-0.2030001,0.1070004-0.2750006
	c0.0709991-0.0710001,0.1629992-0.1070004,0.2739992-0.1070004h3.8199997c0.1110001,0,0.2029991,0.0360003,0.2749996,0.1070004
	c0.0710011,0.0720005,0.1070004,0.1630001,0.1070004,0.2750006V5.7300014z M18.3362999,10.3140011
	c0,0.1110001-0.0359993,0.2030001-0.1070004,0.2740002c-0.0720005,0.0719995-0.1639996,0.1079998-0.2749996,0.1079998h-3.8199997
	c-0.1110001,0-0.2030001-0.0360003-0.2739992-0.1079998c-0.0720005-0.0710001-0.1070004-0.1630001-0.1070004-0.2740002V8.0220013
	c0-0.1110001,0.0349998-0.2030001,0.1070004-0.2750006c0.0709991-0.0710001,0.1629992-0.1069994,0.2739992-0.1069994h3.8199997
	c0.1110001,0,0.2029991,0.0359993,0.2749996,0.1069994c0.0710011,0.0720005,0.1070004,0.1640005,0.1070004,0.2750006V10.3140011z
	 M18.3362999,14.8980007c0,0.1120005-0.0359993,0.2030001-0.1070004,0.2750006
	c-0.0720005,0.0709991-0.1639996,0.1069994-0.2749996,0.1069994h-3.8199997c-0.1110001,0-0.2030001-0.0360003-0.2739992-0.1069994
	c-0.0720005-0.0720005-0.1070004-0.1630001-0.1070004-0.2750006v-2.2919998c0-0.1120005,0.0349998-0.2030001,0.1070004-0.2749996
	c0.0709991-0.0710001,0.1629992-0.1070004,0.2739992-0.1070004h3.8199997c0.1110001,0,0.2029991,0.0360003,0.2749996,0.1070004
	c0.0710011,0.0719995,0.1070004,0.1629992,0.1070004,0.2749996V14.8980007z M12.2243004,5.7300014
	c0,0.1110001-0.0359993,0.2030001-0.1069994,0.2749996c-0.0720005,0.0710001-0.1630001,0.1070004-0.2750006,0.1070004H8.0223007
	c-0.1119995,0-0.2030001-0.0360003-0.2749996-0.1070004C7.676301,5.9330015,7.6403008,5.8410015,7.6403008,5.7300014V3.4380016
	c0-0.1120005,0.0360003-0.2030001,0.1070004-0.2750006C7.8193007,3.092001,7.9103012,3.0560007,8.0223007,3.0560007h3.8199997
	c0.1120005,0,0.2030001,0.0360003,0.2750006,0.1070004c0.0710001,0.0720005,0.1069994,0.1630001,0.1069994,0.2750006V5.7300014z
	 M12.2243004,10.3140011c0,0.1110001-0.0359993,0.2030001-0.1069994,0.2740002
	c-0.0720005,0.0719995-0.1630001,0.1079998-0.2750006,0.1079998H8.0223007c-0.1119995,0-0.2030001-0.0360003-0.2749996-0.1079998
	c-0.0710001-0.0710001-0.1070004-0.1630001-0.1070004-0.2740002V8.0220013c0-0.1110001,0.0360003-0.2030001,0.1070004-0.2750006
	c0.0719995-0.0710001,0.1630001-0.1069994,0.2749996-0.1069994h3.8199997c0.1120005,0,0.2030001,0.0359993,0.2750006,0.1069994
	c0.0710001,0.0720005,0.1069994,0.1640005,0.1069994,0.2750006V10.3140011z M12.2243004,14.8980007
	c0,0.1120005-0.0359993,0.2030001-0.1069994,0.2750006c-0.0720005,0.0709991-0.1630001,0.1069994-0.2750006,0.1069994H8.0223007
	c-0.1119995,0-0.2030001-0.0360003-0.2749996-0.1069994c-0.0710001-0.0720005-0.1070004-0.1630001-0.1070004-0.2750006v-2.2919998
	c0-0.1120005,0.0360003-0.2030001,0.1070004-0.2749996c0.0719995-0.0710001,0.1630001-0.1070004,0.2749996-0.1070004h3.8199997
	c0.1120005,0,0.2030001,0.0360003,0.2750006,0.1070004c0.0710001,0.0719995,0.1069994,0.1629992,0.1069994,0.2749996V14.8980007z
	 M6.1123009,5.7300014c0,0.1110001-0.0360003,0.2030001-0.1079998,0.2749996
	C5.933301,6.0760012,5.841301,6.1120014,5.7303009,6.1120014H1.9103012c-0.1119995,0-0.203001-0.0360003-0.2749996-0.1070004
	C1.5643005,5.9330015,1.5283012,5.8410015,1.5283012,5.7300014V3.4380016c0-0.1120005,0.0359993-0.2030001,0.1070004-0.2750006
	C1.7073002,3.092001,1.7983017,3.0560007,1.9103012,3.0560007h3.8199997c0.1110001,0,0.2030001,0.0360003,0.2740002,0.1070004
	c0.0719995,0.0720005,0.1079998,0.1630001,0.1079998,0.2750006V5.7300014z M6.1123009,10.3140011
	c0,0.1110001-0.0360003,0.2030001-0.1079998,0.2740002c-0.0710001,0.0719995-0.1630001,0.1079998-0.2740002,0.1079998H1.9103012
	c-0.1119995,0-0.203001-0.0360003-0.2749996-0.1079998c-0.0710011-0.0710001-0.1070004-0.1630001-0.1070004-0.2740002V8.0220013
	c0-0.1110001,0.0359993-0.2030001,0.1070004-0.2750006c0.0719986-0.0710001,0.1630001-0.1069994,0.2749996-0.1069994h3.8199997
	c0.1110001,0,0.2030001,0.0359993,0.2740002,0.1069994c0.0719995,0.0720005,0.1079998,0.1640005,0.1079998,0.2750006V10.3140011z
	 M6.1123009,14.8980007c0,0.1120005-0.0360003,0.2030001-0.1079998,0.2750006
	c-0.0710001,0.0709991-0.1630001,0.1069994-0.2740002,0.1069994H1.9103012c-0.1119995,0-0.203001-0.0360003-0.2749996-0.1069994
	c-0.0710011-0.0720005-0.1070004-0.1630001-0.1070004-0.2750006v-2.2919998c0-0.1120005,0.0359993-0.2030001,0.1070004-0.2749996
	c0.0719986-0.0710001,0.1630001-0.1070004,0.2749996-0.1070004h3.8199997c0.1110001,0,0.2030001,0.0360003,0.2740002,0.1070004
	c0.0719995,0.0719995,0.1079998,0.1629992,0.1079998,0.2749996V14.8980007z M19.3033009,0.5610008
	c-0.3740005-0.3739986-0.8240013-0.5609989-1.3490009-0.5609989H1.9103012c-0.5249996,0-0.9750004,0.1870003-1.3490009,0.5609989
	c-0.3739986,0.3740005-0.5609989,0.8240004-0.5609989,1.349v12.9879999c0,0.526,0.1870003,0.9750004,0.5609989,1.3490009
	c0.3740005,0.3739986,0.8240013,0.5609989,1.3490009,0.5609989h16.0439987c0.5249996,0,0.9750004-0.1870003,1.3490009-0.5609989
	c0.3739986-0.3740005,0.5609989-0.8240004,0.5609989-1.3490009V1.9100008
	C19.8642998,1.3850012,19.6772995,0.9350014,19.3033009,0.5610008"/>
</svg>
