<?xml version="1.0" encoding="utf-8"?>
<!-- Generator: Adobe Illustrator 21.1.0, SVG Export Plug-In . SVG Version: 6.00 Build 0)  -->
<svg version="1.1" id="Ebene_1" xmlns="http://www.w3.org/2000/svg" xmlns:xlink="http://www.w3.org/1999/xlink" x="0px" y="0px"
	 viewBox="0 0 21.8430004 22.0860004" style="enable-background:new 0 0 21.8430004 22.0860004;" xml:space="preserve">
<style type="text/css">
	.st0{fill:#FFFFFF;}
	.st1{clip-path:url(#SVGID_2_);fill:url(#SVGID_3_);}
	.st2{clip-path:url(#SVGID_5_);}
	.st3{clip-path:url(#SVGID_7_);fill:#F5F5F5;}
	.st4{opacity:0.550003;clip-path:url(#SVGID_9_);}
	.st5{clip-path:url(#SVGID_11_);fill:#D5D5D5;}
	.st6{clip-path:url(#SVGID_11_);fill:#EAEAEA;}
	.st7{clip-path:url(#SVGID_5_);fill:url(#SVGID_12_);}
	.st8{fill:#D5D5D5;}
	.st9{fill:#929191;}
	.st10{fill:#CCD1D9;}
	.st11{clip-path:url(#SVGID_14_);fill:#424A54;}
	.st12{clip-path:url(#SVGID_14_);fill:#CCD1D9;}
	.st13{clip-path:url(#SVGID_14_);fill:#E5E8ED;}
	.st14{clip-path:url(#SVGID_14_);fill:#ABB2BD;}
	.st15{clip-path:url(#SVGID_14_);fill:#A1D469;}
	.st16{clip-path:url(#SVGID_14_);fill:#ED5466;}
	.st17{fill:#030005;}
	.st18{fill:#211A14;}
</style>
<path d="M21.8430004,20.6710606l-6.9662476-6.9662476c2.7011719-3.2918091,2.5165405-8.1748657-0.5562134-11.2476196
	c-3.2714844-3.2705078-8.5917969-3.2705078-11.8632812,0c-3.2705078,3.2705078-3.2705078,8.5927734,0,11.8632812
	c1.6357422,1.6352539,3.7832031,2.453125,5.9316406,2.453125c1.7783203,0,3.5513916-0.569397,5.0386963-1.6898193
	l7.0013428,7.0013428L21.8430004,20.6710606z M8.3888988,14.7779942c-1.7060547,0-3.3105469-0.6650391-4.5175781-1.871582
	c-2.4902344-2.4912109-2.4902344-6.5439448,0-9.0351562c1.2060547-1.206543,2.8105469-1.8710938,4.5175781-1.8710938
	c1.7060547,0,3.3105469,0.6645508,4.5175781,1.8710938c2.4902344,2.4912109,2.4902344,6.5439448,0,9.0351562
	C11.6994457,14.1129551,10.0949535,14.7779942,8.3888988,14.7779942z"/>
</svg>
