<svg xmlns="http://www.w3.org/2000/svg" width="50" height="50" viewBox="0 0 50 50">
  <title>01_lighting_comfort</title>
  <path d="M41.7465,23.88245a1.088,1.088,0,0,1,1.116,1.088,1.10209,1.10209,0,0,1-1.116,1.105h-4.828a1.10209,1.10209,0,0,1-1.116-1.105,1.088,1.088,0,0,1,1.116-1.088h4.828m-7.5262-6.3041,3.408-3.361a1.0616,1.0616,0,0,0,0-1.543,1.09967,1.09967,0,0,0-1.582,0l-3.409,3.361a1.05046,1.05046,0,0,0,0,1.543,1.162,1.162,0,0,0,1.583,0m0,14.8433a1.088,1.088,0,0,0-1.583,0,1.04805,1.04805,0,0,0,0,1.543l3.409,3.319a1.15667,1.15667,0,0,0,1.582,0,1.02068,1.02068,0,0,0,0-1.539Zm-9.2306-17.9258a1.10529,1.10529,0,0,0,1.136-1.088v-4.744a1.1053,1.1053,0,0,0-1.136-1.088,1.088,1.088,0,0,0-1.116,1.088v4.744a1.088,1.088,0,0,0,1.116,1.088m0,21.0083a1.088,1.088,0,0,0-1.116,1.088v4.744a1.11219,1.11219,0,0,0,1.116,1.088,1.137,1.137,0,0,0,1.136-1.126v-4.706a1.1053,1.1053,0,0,0-1.136-1.088m4.5647-6.0847a6.16348,6.16348,0,0,0,0-8.877,6.56193,6.56193,0,0,0-9.109,0,6.16348,6.16348,0,0,0,0,8.877,6.56192,6.56192,0,0,0,9.109,0m1.562-10.42a8.2722,8.2722,0,0,1,0,11.959,8.47833,8.47833,0,0,1-6.127,2.471,8.488,8.488,0,0,1-6.147-2.471,8.31736,8.31736,0,0,1,0-11.959,8.5036,8.5036,0,0,1,6.147-2.488,8.47375,8.47375,0,0,1,6.127,2.488m-15.2966-1.4211a1.09656,1.09656,0,0,0,.792.316,1.24517,1.24517,0,0,0,.791-.316,1.13106,1.13106,0,0,0,0-1.543l-3.449-3.361a1.21243,1.21243,0,0,0-1.583,0,1.04806,1.04806,0,0,0,0,1.543Zm-.0402,14.8433-3.408,3.323a1.06719,1.06719,0,0,0,0,1.581,1.16279,1.16279,0,0,0,1.582,0l3.449-3.361a1.09935,1.09935,0,0,0,0-1.543,1.13551,1.13551,0,0,0-1.623,0m-1.5421-7.4512a1.088,1.088,0,0,0-1.116-1.088H8.2525a1.08777,1.08777,0,0,0-1.115,1.088,1.10187,1.10187,0,0,0,1.115,1.105h4.869a1.10209,1.10209,0,0,0,1.116-1.105"/>
</svg>
