<svg xmlns="http://www.w3.org/2000/svg" width="50" height="50" viewBox="0 0 50 50">
  <title>02_thermal_comfort</title>
  <path d="M28.30371,36.46143a3.30347,3.30347,0,1,1-4.38916-3.12012l.10742-.03711-.01807-.11279a1.03743,1.03743,0,0,1-.01465-.17187V21.56445a1.01075,1.01075,0,1,1,2.02148,0V33.01953a.85333.85333,0,0,1-.01562.167l-.02344.11621.1123.03857A3.30373,3.30373,0,0,1,28.30371,36.46143Zm3.5733.00055a6.877,6.877,0,1,1-11.462-5.127V11.252a4.585,4.585,0,1,1,9.17,0V31.335A6.85546,6.85546,0,0,1,31.877,36.462Zm-2.15631-.00006a4.73822,4.73822,0,0,0-2.292-4.04932V11.251a2.428,2.428,0,1,0-4.856,0V32.41309a4.72068,4.72068,0,1,0,7.14795,4.04883Z"/>
</svg>
