<svg xmlns="http://www.w3.org/2000/svg" width="50" height="50" viewBox="0 0 50 50">
  <title>03_air_quality</title>
  <path d="M40.42676,20.68555a5.38429,5.38429,0,0,1-5.21094,5.34912.38527.38527,0,0,1-.13965.01318H10.686a1.11255,1.11255,0,1,1,0-2.2251H34.915a1.05315,1.05315,0,0,1,.16113-.01221,3.125,3.125,0,1,0-3.125-3.125,1.11328,1.11328,0,0,1-2.22656,0,5.35107,5.35107,0,0,1,10.70215,0ZM10.68652,21.8042H22.51318a.38278.38278,0,0,0,.13965-.01318,5.35077,5.35077,0,1,0-5.49072-5.34863,1.113,1.113,0,0,0,2.22607,0,3.12524,3.12524,0,1,1,3.125,3.125,1.09637,1.09637,0,0,0-.16064.01172h-11.666a1.11255,1.11255,0,1,0,0,2.2251Zm19.334,6.40381H10.686a1.1123,1.1123,0,1,0,0,2.22461H30.02051a3.12573,3.12573,0,1,1-3.125,3.125,1.11279,1.11279,0,0,0-2.22559,0A5.35107,5.35107,0,1,0,30.02051,28.208Z"/>
</svg>
