<svg xmlns="http://www.w3.org/2000/svg" width="50" height="50" viewBox="0 0 50 50">
  <title>04_life_cycle_cost</title>
  <path d="M7.93085,27.86285l-.307,1.635a16.95413,16.95413,0,0,1-.307-3.271,17.27347,17.27347,0,0,1,13.084-16.559v-2.759l7.666,3.884-7.667,3.884v-1.738a13.9235,13.9235,0,0,0-10.017,13.288,14.33527,14.33527,0,0,0,.614,4.191Zm28.1083.8169-.511,8.586,7.155-4.701-2.35-1.433a15.3946,15.3946,0,0,0,.715-4.906,17.047,17.047,0,0,0-11.345-15.945l1.226.92-3.679,1.533a13.91042,13.91042,0,0,1,10.732,13.492,16.78993,16.78993,0,0,1-.409,3.271Zm-1.6355,6.8484a13.72379,13.72379,0,0,1-19.727.614l1.533-.818-7.154-4.702.51,8.586,2.351-1.432a16.82274,16.82274,0,0,0,12.266,5.315,16.6172,16.6172,0,0,0,10.937-4.089l-1.227.409Zm-11.3454-18.9093v2.249c-2.555.511-3.986,2.147-3.986,4.191,0,2.249,1.738,3.475,4.191,4.293,1.738.614,2.453,1.125,2.453,2.044s-.921,1.431-2.249,1.431a8.69178,8.69178,0,0,1-3.884-1.022l-.715,2.761a10.29633,10.29633,0,0,0,3.986,1.021v2.25h2.35v-2.454c2.658-.51,4.191-2.249,4.191-4.293,0-2.146-1.124-3.374-3.884-4.395-2.044-.715-2.861-1.226-2.861-2.043,0-.614.51-1.329,2.043-1.329a6.90014,6.90014,0,0,1,3.374.818l.715-2.658a8.55405,8.55405,0,0,0-3.374-.818v-2.044Z"/>
</svg>
